<svg width="60" height="60" viewBox="0 0 60 60" fill="none" xmlns="http://www.w3.org/2000/svg">
<rect x="0.402878" y="0.402878" width="59.1942" height="59.1942" rx="2.82014" stroke="#B6E5D8" stroke-width="0.805755"/>
<path d="M34.4314 26.073L33.8194 24.18L35.4289 23.0025C36.0889 22.5225 36.3514 21.7095 36.0979 20.934C35.8669 20.22 35.2324 19.5015 34.3384 19.5015H32.3524L31.7644 17.787C31.5139 17.0055 30.8224 16.5015 30.0004 16.5015C29.1784 16.5015 28.4869 17.007 28.2424 17.7735L27.6484 19.5015H25.6639C24.7714 19.5015 24.1369 20.22 23.9029 20.934C23.7779 21.3046 23.7753 21.7056 23.8955 22.0777C24.0156 22.4499 24.2523 22.7736 24.5704 23.001L26.1814 24.18L25.5709 26.073C25.3174 26.8545 25.5859 27.666 26.2489 28.1445C26.5663 28.3742 26.9484 28.4972 27.3401 28.4955C27.7319 28.4939 28.113 28.3679 28.4284 28.1355L30.0004 26.979L31.5724 28.134C31.9039 28.3785 32.2864 28.5 32.6674 28.5C33.0439 28.5 33.4204 28.383 33.7504 28.146C34.4134 27.669 34.6804 26.856 34.4299 26.073H34.4314ZM32.8759 26.9265C32.7364 27.0285 32.5969 27.027 32.4619 26.9265L30.4459 25.446C30.3168 25.3524 30.1614 25.3019 30.0019 25.3019C29.8424 25.3019 29.687 25.3524 29.5579 25.446L27.5419 26.9265C27.4825 26.972 27.4098 26.9967 27.3349 26.9967C27.2601 26.9967 27.1873 26.972 27.1279 26.9265C26.9899 26.829 26.9464 26.697 26.9989 26.5335L27.7774 24.1245C27.826 23.9744 27.8259 23.8128 27.7771 23.6628C27.7284 23.5127 27.6335 23.3819 27.5059 23.289L25.4569 21.7905C25.3936 21.7502 25.3463 21.6891 25.323 21.6176C25.2997 21.5462 25.302 21.469 25.3294 21.399C25.4089 21.159 25.5844 21 25.6654 21H28.1869C28.3433 21 28.4957 20.9512 28.6229 20.8602C28.7501 20.7693 28.8458 20.641 28.8964 20.493L29.6704 18.243C29.6934 18.1707 29.7391 18.1078 29.8009 18.0637C29.8626 18.0196 29.9369 17.9966 30.0128 17.9983C30.0886 18 30.1619 18.0262 30.2216 18.073C30.2813 18.1199 30.3242 18.1848 30.3439 18.258L31.1104 20.493C31.1611 20.641 31.2567 20.7693 31.3839 20.8602C31.5111 20.9512 31.6636 21 31.8199 21H34.3429C34.4239 21 34.5979 21.1575 34.6774 21.399C34.7048 21.469 34.7071 21.5462 34.6838 21.6176C34.6606 21.6891 34.6132 21.7502 34.5499 21.7905L32.5009 23.289C32.3733 23.3822 32.2783 23.5132 32.2295 23.6635C32.1808 23.8138 32.1807 23.9757 32.2294 24.126L33.0079 26.532C33.0604 26.6955 33.0184 26.8275 32.8804 26.9265H32.8759ZM34.5364 35.9835C44.4619 35.718 48.0019 30.444 48.0019 25.9695C47.9992 24.8035 47.5864 23.6756 46.8358 22.7832C46.0853 21.8909 45.0447 21.291 43.8964 21.0885C44.2639 20.217 44.5714 19.3845 44.7904 18.6435C45.0186 17.8778 45.0632 17.069 44.9207 16.2828C44.7781 15.4966 44.4524 14.755 43.9699 14.118C43.482 13.4584 42.8457 12.9229 42.1124 12.5549C41.379 12.1869 40.5694 11.9968 39.7489 12H20.2519C19.4315 11.9967 18.6217 12.1868 17.8884 12.5547C17.155 12.9227 16.5187 13.4583 16.0309 14.118C15.5488 14.7551 15.2232 15.4967 15.0807 16.2829C14.9382 17.0691 14.9826 17.8777 15.2104 18.6435C15.4294 19.383 15.7369 20.217 16.1044 21.0885C14.9568 21.2919 13.9171 21.8921 13.1672 22.7844C12.4173 23.6766 12.0048 24.804 12.002 25.9695C12.002 30.444 15.5404 35.718 25.4674 35.9835C25.4839 36.198 25.5019 36.4125 25.5019 36.63V42.75C25.5019 46.368 22.1329 46.497 21.7489 46.5H20.2519C20.053 46.5 19.8623 46.579 19.7216 46.7197C19.581 46.8603 19.5019 47.0511 19.5019 47.25C19.5019 47.4489 19.581 47.6397 19.7216 47.7804C19.8623 47.921 20.053 48 20.2519 48H39.7519C39.9508 48 40.1416 47.921 40.2822 47.7804C40.4229 47.6397 40.5019 47.4489 40.5019 47.25C40.5019 47.0511 40.4229 46.8603 40.2822 46.7197C40.1416 46.579 39.9508 46.5 39.7519 46.5H38.2549C37.8709 46.497 34.5019 46.368 34.5019 42.75V36.63C34.5019 36.4125 34.5199 36.198 34.5364 35.9835ZM46.5019 25.9695C46.5019 29.904 43.4029 34.1445 34.7989 34.47C35.219 32.8868 36.1104 31.4686 37.3549 30.4035C39.9334 28.2105 41.9044 25.248 43.2394 22.521C44.1201 22.5722 44.9481 22.9576 45.5544 23.5984C46.1607 24.2393 46.4996 25.0873 46.5019 25.9695ZM13.502 25.9695C13.502 24.129 14.9464 22.6335 16.7599 22.5225C18.0964 25.2495 20.0674 28.209 22.6474 30.4035C23.892 31.4689 24.7838 32.8869 25.2049 34.47C16.6009 34.1445 13.502 29.904 13.502 25.9695ZM25.5304 46.5015C26.3749 45.69 27.0019 44.505 27.0019 42.7515V36.6315C27.0069 35.2314 26.707 33.847 26.1232 32.5744C25.5393 31.3018 24.6855 30.1715 23.6209 29.262C19.9639 26.1555 17.5804 21.3705 16.6489 18.2205C16.4878 17.6784 16.4567 17.106 16.558 16.5496C16.6594 15.9932 16.8905 15.4685 17.2324 15.018C17.5815 14.5457 18.0369 14.1623 18.5617 13.8988C19.0866 13.6353 19.6662 13.4992 20.2534 13.5015H39.7489C40.9489 13.5015 42.0484 14.0535 42.7699 15.018C43.4659 15.9495 43.6789 17.1165 43.3534 18.2205C42.4219 21.3735 40.0369 26.157 36.3844 29.262C35.3199 30.1715 34.466 31.3018 33.8822 32.5744C33.2983 33.847 32.9985 35.2314 33.0034 36.6315V42.7515C33.0034 44.505 33.6304 45.69 34.4749 46.5015H25.5334H25.5304Z" fill="#12AB81"/>
</svg>
