<svg width="60" height="60" viewBox="0 0 60 60" fill="none" xmlns="http://www.w3.org/2000/svg">
<rect x="0.403683" y="0.403683" width="59.1926" height="59.1926" rx="2.82578" stroke="#E6EAFC" stroke-width="0.807365"/>
<path d="M22.3616 16.4045L24.3381 17.9957L23.6729 20.4466C23.5865 20.7647 23.7027 21.0955 23.969 21.2893C24.1029 21.3875 24.2645 21.4405 24.4304 21.4408C24.5793 21.4408 24.7287 21.3977 24.8607 21.311L26.9824 19.9199L29.1041 21.311C29.3795 21.4916 29.7295 21.483 29.9958 21.2892C30.2621 21.0954 30.3784 20.7646 30.2921 20.4465L29.6268 17.9956L31.6033 16.4044C31.8599 16.1978 31.9599 15.8618 31.8583 15.5482C31.7566 15.2347 31.4784 15.0217 31.1496 15.0056L28.6168 14.8819L27.7166 12.5075C27.6 12.1998 27.3119 12.001 26.9826 12.001C26.6532 12.001 26.3649 12.1998 26.2483 12.5076L25.3482 14.8821L22.8153 15.0058C22.4866 15.0218 22.2084 15.2347 22.1067 15.5484C22.005 15.8618 22.105 16.1979 22.3616 16.4045ZM25.6489 16.03C25.8016 16.0226 25.9488 15.9708 26.0725 15.8808C26.1962 15.7908 26.2909 15.6666 26.3452 15.5235L26.9824 13.8423L27.6196 15.5233C27.6738 15.6665 27.7685 15.7907 27.8921 15.8807C28.0158 15.9706 28.163 16.0225 28.3156 16.0299L30.109 16.1175L28.7097 17.2442C28.5905 17.34 28.5019 17.4686 28.4547 17.6142C28.4074 17.7598 28.4036 17.916 28.4437 18.0637L28.9147 19.7991L27.4126 18.8142C27.2848 18.7303 27.1353 18.6856 26.9825 18.6856C26.8296 18.6856 26.6801 18.7303 26.5523 18.8142L25.0501 19.7991L25.5212 18.0639C25.5613 17.9162 25.5575 17.76 25.5103 17.6144C25.4631 17.4688 25.3745 17.3402 25.2554 17.2444L23.8559 16.1178L25.6489 16.03ZM17.415 23.6057L19.5366 24.9967C19.812 25.1773 20.1621 25.1689 20.4284 24.975C20.6947 24.7812 20.811 24.4505 20.7246 24.1323L20.0593 21.6813L22.0358 20.0901C22.2924 19.8836 22.3924 19.5475 22.2907 19.234C22.189 18.9204 21.9108 18.7075 21.5821 18.6914L19.0492 18.5677L18.1492 16.1932C18.0326 15.8855 17.7445 15.6866 17.4151 15.6866C17.0858 15.6866 16.7975 15.8855 16.6809 16.1933L15.7807 18.5678L13.2479 18.6915C12.9191 18.7075 12.641 18.9205 12.5392 19.2341C12.4375 19.5477 12.5376 19.8838 12.7942 20.0903L14.7706 21.6815L14.1054 24.1324C14.019 24.4505 14.1353 24.7812 14.4016 24.9751C14.5354 25.0733 14.697 25.1263 14.8629 25.1266C15.0119 25.1266 15.1612 25.0835 15.2932 24.9968L17.415 23.6057ZM14.2884 19.8033L16.0818 19.7157C16.2344 19.7083 16.3816 19.6564 16.5052 19.5664C16.6288 19.4765 16.7235 19.3523 16.7777 19.2092L17.415 17.528L18.0523 19.2093C18.1065 19.3524 18.2013 19.4765 18.3249 19.5664C18.4485 19.6564 18.5957 19.7083 18.7483 19.7157L20.5416 19.8033L19.1423 20.9298C18.8988 21.1258 18.7944 21.4475 18.8764 21.7493L19.3474 23.4846L17.8451 22.4996C17.7173 22.4157 17.5679 22.3711 17.4151 22.3711C17.2623 22.3711 17.1128 22.4158 16.985 22.4997L15.4828 23.4846L15.9538 21.7493C15.9939 21.6016 15.9902 21.4454 15.943 21.2999C15.8957 21.1543 15.8071 21.0257 15.688 20.9298L14.2884 19.8033ZM31.6741 19.234C31.5724 19.5475 31.6725 19.8836 31.929 20.0902L33.9055 21.6814L33.2403 24.1323C33.1539 24.4504 33.2702 24.7812 33.5365 24.975C33.6703 25.0732 33.8319 25.1262 33.9978 25.1265C34.1468 25.1265 34.2961 25.0834 34.4282 24.9967L36.5498 23.6056L38.6714 24.9967C38.9468 25.1772 39.2968 25.1688 39.5631 24.975C39.8294 24.7813 39.9458 24.4505 39.8595 24.1322L39.1942 21.6813L41.1707 20.0901C41.4273 19.8836 41.5273 19.5475 41.4256 19.234C41.3239 18.9204 41.0457 18.7075 40.717 18.6914L38.1842 18.5677L37.2841 16.1933C37.1675 15.8855 36.8793 15.6866 36.5499 15.6866C36.2205 15.6866 35.9323 15.8855 35.8157 16.1932L34.9155 18.5677L32.3828 18.6914C32.0541 18.7075 31.7759 18.9204 31.6741 19.234ZM35.2166 19.7157C35.3693 19.7084 35.5164 19.6565 35.64 19.5665C35.7637 19.4766 35.8584 19.3524 35.9126 19.2093L36.5498 17.528L37.1871 19.2091C37.2413 19.3522 37.336 19.4764 37.4596 19.5664C37.5833 19.6564 37.7304 19.7083 37.8831 19.7157L39.6764 19.8033L38.2769 20.9299C38.1578 21.0258 38.0692 21.1543 38.022 21.2999C37.9748 21.4455 37.971 21.6016 38.0111 21.7493L38.4822 23.4846L36.9799 22.4996C36.8521 22.4158 36.7026 22.3711 36.5498 22.3711C36.397 22.3712 36.2475 22.4158 36.1197 22.4997L34.6176 23.4846L35.0886 21.7493C35.1287 21.6016 35.1249 21.4454 35.0777 21.2999C35.0305 21.1543 34.9419 21.0257 34.8228 20.9298L33.4233 19.8032L35.2166 19.7157ZM40.6034 34.1856C38.4335 34.1856 36.4949 35.1948 35.2297 36.7689C33.7602 35.3342 31.947 34.3141 29.985 33.7957C31.9238 32.7294 33.2411 30.6647 33.2411 28.2973C33.2411 24.8408 30.4335 22.0287 26.9825 22.0287C23.5315 22.0287 20.7239 24.8408 20.7239 28.2973C20.7239 30.663 22.0393 32.7262 23.9758 33.7933C22.1486 34.2741 20.4637 35.188 19.0631 36.4578C16.9053 38.4124 15.5472 41.0778 15.239 43.9629C15.2303 44.0439 15.2387 44.1258 15.2637 44.2033C15.2888 44.2808 15.3298 44.3522 15.3841 44.4128C15.4385 44.4734 15.505 44.5218 15.5793 44.555C15.6536 44.5882 15.734 44.6053 15.8153 44.6053L34.6668 44.6052C35.8691 46.6362 38.0799 48.001 40.6033 48.001C44.4062 48.001 47.5 44.9022 47.5 41.0932C47.5 37.2843 44.4063 34.1856 40.6034 34.1856ZM21.8834 28.2973C21.8834 25.4811 24.1709 23.19 26.9826 23.19C29.7942 23.19 32.0817 25.4811 32.0817 28.2973C32.0817 31.1132 29.7948 33.4042 26.9835 33.4046H26.9816C24.1704 33.4041 21.8834 31.1131 21.8834 28.2973ZM16.4799 43.4441C17.336 38.3394 21.7417 34.5664 26.9816 34.566H26.9834C29.8338 34.5662 32.5745 35.722 34.5703 37.7499C34.0205 38.7412 33.7067 39.8812 33.7067 41.0934C33.706 41.895 33.8453 42.6905 34.1181 43.4441H16.4799ZM40.6034 46.8398C37.4399 46.8398 34.8662 44.2619 34.8662 41.0933C34.8662 37.9247 37.4399 35.3469 40.6034 35.3469C43.7669 35.3469 46.3406 37.9247 46.3406 41.0933C46.3406 44.2619 43.7669 46.8398 40.6034 46.8398ZM44.5771 38.1284C44.2896 37.8421 43.9065 37.6859 43.5026 37.6868C43.3036 37.687 43.1066 37.7267 42.923 37.8038C42.7395 37.8808 42.5731 37.9936 42.4334 38.1356L39.7718 40.8282L38.7722 39.8271C38.1808 39.2349 37.2187 39.2348 36.6273 39.8271C36.036 40.4194 36.036 41.3831 36.6273 41.9755L38.7033 44.0548C38.999 44.351 39.3873 44.4989 39.7757 44.4989C40.1641 44.4989 40.5525 44.3509 40.8481 44.0548C41.6361 43.2656 42.4308 42.4582 43.1993 41.6774C43.6605 41.2089 44.1217 40.7403 44.584 40.2729C45.1715 39.6792 45.1683 38.7171 44.5771 38.1284ZM43.7605 39.4555C43.2974 39.9236 42.8356 40.3928 42.3737 40.8621C41.6066 41.6414 40.8133 42.4473 40.0283 43.2336C39.9613 43.3006 39.8704 43.3382 39.7757 43.3382C39.681 43.3382 39.5902 43.3006 39.5231 43.2336L37.4471 41.1543C37.3803 41.0872 37.3427 40.9962 37.3427 40.9013C37.3427 40.8064 37.3803 40.7154 37.4471 40.6482C37.5168 40.5785 37.6083 40.5436 37.6998 40.5436C37.7912 40.5436 37.8827 40.5785 37.9524 40.6482L39.3638 42.062C39.4177 42.116 39.4816 42.1587 39.5519 42.1879C39.6222 42.2171 39.6976 42.2321 39.7738 42.2321H39.7752C39.8516 42.2319 39.9272 42.2166 39.9976 42.1871C40.0681 42.1576 40.132 42.1144 40.1857 42.06L43.2573 38.9527C43.2899 38.9196 43.3288 38.8933 43.3716 38.8753C43.4145 38.8574 43.4605 38.8481 43.507 38.8481C43.6029 38.8445 43.6919 38.8844 43.7595 38.9518C43.8982 39.0899 43.8987 39.3159 43.7605 39.4555Z" fill="#002DE0"/>
</svg>
