<svg width="60" height="60" viewBox="0 0 60 60" fill="none" xmlns="http://www.w3.org/2000/svg">
<rect x="0.402878" y="0.402878" width="59.1942" height="59.1942" rx="2.82014" stroke="#E6EAFC" stroke-width="0.805755"/>
<mask id="path-2-inside-1_1033_2237" fill="white">
<path d="M47.5286 20.9485C47.4368 20.9844 47.3389 21.0018 47.2403 20.9998C47.1418 20.9979 47.0446 20.9765 46.9543 20.9369C46.8641 20.8974 46.7825 20.8404 46.7142 20.7693C46.646 20.6982 46.5924 20.6143 46.5566 20.5225L44.2256 14.548C38.9172 27.0699 28.4008 35.2959 12.9299 38.9783C12.834 39.0011 12.7346 39.0047 12.6374 38.9891C12.5402 38.9734 12.447 38.9388 12.3631 38.8871C12.2793 38.8354 12.2064 38.7677 12.1487 38.6879C12.091 38.6081 12.0496 38.5177 12.0269 38.4218C12.0041 38.326 12.0005 38.2266 12.0161 38.1294C12.0318 38.0321 12.0664 37.9389 12.1181 37.8551C12.1698 37.7712 12.2375 37.6984 12.3173 37.6407C12.3971 37.583 12.4875 37.5416 12.5834 37.5188C27.6613 33.9294 37.8687 25.9209 42.9492 13.726L36.6597 16.18C36.4764 16.2435 36.2757 16.2335 36.0997 16.1521C35.9236 16.0708 35.7859 15.9244 35.7155 15.7437C35.645 15.5631 35.6473 15.3621 35.7218 15.1831C35.7964 15.004 35.9373 14.8608 36.1152 14.7835L42.7137 12.208C43.2252 12.0085 43.7831 12.0175 44.2871 12.2395C44.7911 12.4615 45.1796 12.865 45.3791 13.378L47.9546 19.978C47.9905 20.0696 48.0079 20.1675 48.0059 20.2659C48.0039 20.3644 47.9825 20.4614 47.943 20.5516C47.9034 20.6417 47.8464 20.7232 47.7753 20.7913C47.7042 20.8594 47.6204 20.9128 47.5286 20.9485ZM44.2556 23.9994C44.0567 23.9994 43.866 24.0784 43.7253 24.2191C43.5847 24.3598 43.5056 24.5505 43.5056 24.7494V47.2493C43.5056 47.4482 43.5847 47.639 43.7253 47.7796C43.866 47.9203 44.0567 47.9993 44.2556 47.9993C44.4546 47.9993 44.6453 47.9203 44.786 47.7796C44.9266 47.639 45.0056 47.4482 45.0056 47.2493V24.7494C45.0056 24.5505 44.9266 24.3598 44.786 24.2191C44.6453 24.0784 44.4546 23.9994 44.2556 23.9994ZM36.7557 31.4994C36.5568 31.4994 36.366 31.5784 36.2254 31.719C36.0847 31.8597 36.0057 32.0505 36.0057 32.2494V47.2493C36.0057 47.4482 36.0847 47.639 36.2254 47.7796C36.366 47.9203 36.5568 47.9993 36.7557 47.9993C36.9546 47.9993 37.1454 47.9203 37.286 47.7796C37.4267 47.639 37.5057 47.4482 37.5057 47.2493V32.2494C37.5057 32.0505 37.4267 31.8597 37.286 31.719C37.1454 31.5784 36.9546 31.4994 36.7557 31.4994ZM21.7558 38.9993C21.5569 38.9993 21.3661 39.0783 21.2255 39.219C21.0848 39.3597 21.0058 39.5504 21.0058 39.7493V47.2493C21.0058 47.4482 21.0848 47.639 21.2255 47.7796C21.3661 47.9203 21.5569 47.9993 21.7558 47.9993C21.9547 47.9993 22.1455 47.9203 22.2861 47.7796C22.4268 47.639 22.5058 47.4482 22.5058 47.2493V39.7493C22.5058 39.5504 22.4268 39.3597 22.2861 39.219C22.1455 39.0783 21.9547 38.9993 21.7558 38.9993ZM14.2558 41.9993C14.0569 41.9993 13.8662 42.0783 13.7255 42.219C13.5849 42.3596 13.5058 42.5504 13.5058 42.7493V47.2493C13.5058 47.4482 13.5849 47.639 13.7255 47.7796C13.8662 47.9203 14.0569 47.9993 14.2558 47.9993C14.4548 47.9993 14.6455 47.9203 14.7862 47.7796C14.9268 47.639 15.0058 47.4482 15.0058 47.2493V42.7493C15.0058 42.5504 14.9268 42.3596 14.7862 42.219C14.6455 42.0783 14.4548 41.9993 14.2558 41.9993ZM29.2557 35.9994C29.0568 35.9994 28.8661 36.0784 28.7254 36.219C28.5848 36.3597 28.5057 36.5504 28.5057 36.7493V47.2493C28.5057 47.4482 28.5848 47.639 28.7254 47.7796C28.8661 47.9203 29.0568 47.9993 29.2557 47.9993C29.4547 47.9993 29.6454 47.9203 29.7861 47.7796C29.9267 47.639 30.0057 47.4482 30.0057 47.2493V36.7493C30.0057 36.5504 29.9267 36.3597 29.7861 36.219C29.6454 36.0784 29.4547 35.9994 29.2557 35.9994ZM12.0059 20.9995C12.0059 16.036 16.0423 11.9995 21.0058 11.9995C25.9693 11.9995 30.0057 16.036 30.0057 20.9995C30.0057 25.9629 25.9693 29.9994 21.0058 29.9994C16.0423 29.9994 12.0059 25.9629 12.0059 20.9995ZM21.0058 28.4994C22.0813 28.4994 23.0998 28.2624 24.0268 27.8529C24.0223 27.8184 24.0058 27.7869 24.0058 27.7494V26.9994C24.0058 25.3449 22.6603 23.9994 21.0058 23.9994C19.3513 23.9994 18.0058 25.3449 18.0058 26.9994V27.7494C18.0058 27.7854 17.9908 27.8169 17.9848 27.8529C18.9355 28.2774 19.9647 28.4976 21.0058 28.4994ZM13.5058 20.9995C13.5058 23.4414 14.6968 25.5939 16.5088 26.9634C16.5283 24.4989 18.5353 22.4994 21.0058 22.4994C23.4763 22.4994 25.4833 24.4989 25.5028 26.9634C27.3148 25.5924 28.5057 23.4414 28.5057 20.9995C28.5057 16.864 25.1413 13.4995 21.0058 13.4995C16.8703 13.4995 13.5058 16.864 13.5058 20.9995ZM18.0058 17.9995C18.0058 16.345 19.3513 14.9995 21.0058 14.9995C22.6603 14.9995 24.0058 16.345 24.0058 17.9995C24.0058 19.654 22.6603 20.9995 21.0058 20.9995C19.3513 20.9995 18.0058 19.654 18.0058 17.9995ZM19.5058 17.9995C19.5055 18.2966 19.5934 18.5871 19.7582 18.8342C19.9231 19.0814 20.1576 19.274 20.432 19.3879C20.7064 19.5017 21.0085 19.5316 21.2999 19.4737C21.5913 19.4158 21.8589 19.2728 22.069 19.0627C22.2791 18.8526 22.4221 18.5849 22.48 18.2935C22.5379 18.0021 22.508 17.7001 22.3942 17.4257C22.2804 17.1513 22.0877 16.9168 21.8405 16.7519C21.5934 16.587 21.3029 16.4992 21.0058 16.4995C20.1793 16.4995 19.5058 17.1715 19.5058 17.9995Z"/>
</mask>
<path d="M47.5286 20.9485C47.4368 20.9844 47.3389 21.0018 47.2403 20.9998C47.1418 20.9979 47.0446 20.9765 46.9543 20.9369C46.8641 20.8974 46.7825 20.8404 46.7142 20.7693C46.646 20.6982 46.5924 20.6143 46.5566 20.5225L44.2256 14.548C38.9172 27.0699 28.4008 35.2959 12.9299 38.9783C12.834 39.0011 12.7346 39.0047 12.6374 38.9891C12.5402 38.9734 12.447 38.9388 12.3631 38.8871C12.2793 38.8354 12.2064 38.7677 12.1487 38.6879C12.091 38.6081 12.0496 38.5177 12.0269 38.4218C12.0041 38.326 12.0005 38.2266 12.0161 38.1294C12.0318 38.0321 12.0664 37.9389 12.1181 37.8551C12.1698 37.7712 12.2375 37.6984 12.3173 37.6407C12.3971 37.583 12.4875 37.5416 12.5834 37.5188C27.6613 33.9294 37.8687 25.9209 42.9492 13.726L36.6597 16.18C36.4764 16.2435 36.2757 16.2335 36.0997 16.1521C35.9236 16.0708 35.7859 15.9244 35.7155 15.7437C35.645 15.5631 35.6473 15.3621 35.7218 15.1831C35.7964 15.004 35.9373 14.8608 36.1152 14.7835L42.7137 12.208C43.2252 12.0085 43.7831 12.0175 44.2871 12.2395C44.7911 12.4615 45.1796 12.865 45.3791 13.378L47.9546 19.978C47.9905 20.0696 48.0079 20.1675 48.0059 20.2659C48.0039 20.3644 47.9825 20.4614 47.943 20.5516C47.9034 20.6417 47.8464 20.7232 47.7753 20.7913C47.7042 20.8594 47.6204 20.9128 47.5286 20.9485ZM44.2556 23.9994C44.0567 23.9994 43.866 24.0784 43.7253 24.2191C43.5847 24.3598 43.5056 24.5505 43.5056 24.7494V47.2493C43.5056 47.4482 43.5847 47.639 43.7253 47.7796C43.866 47.9203 44.0567 47.9993 44.2556 47.9993C44.4546 47.9993 44.6453 47.9203 44.786 47.7796C44.9266 47.639 45.0056 47.4482 45.0056 47.2493V24.7494C45.0056 24.5505 44.9266 24.3598 44.786 24.2191C44.6453 24.0784 44.4546 23.9994 44.2556 23.9994ZM36.7557 31.4994C36.5568 31.4994 36.366 31.5784 36.2254 31.719C36.0847 31.8597 36.0057 32.0505 36.0057 32.2494V47.2493C36.0057 47.4482 36.0847 47.639 36.2254 47.7796C36.366 47.9203 36.5568 47.9993 36.7557 47.9993C36.9546 47.9993 37.1454 47.9203 37.286 47.7796C37.4267 47.639 37.5057 47.4482 37.5057 47.2493V32.2494C37.5057 32.0505 37.4267 31.8597 37.286 31.719C37.1454 31.5784 36.9546 31.4994 36.7557 31.4994ZM21.7558 38.9993C21.5569 38.9993 21.3661 39.0783 21.2255 39.219C21.0848 39.3597 21.0058 39.5504 21.0058 39.7493V47.2493C21.0058 47.4482 21.0848 47.639 21.2255 47.7796C21.3661 47.9203 21.5569 47.9993 21.7558 47.9993C21.9547 47.9993 22.1455 47.9203 22.2861 47.7796C22.4268 47.639 22.5058 47.4482 22.5058 47.2493V39.7493C22.5058 39.5504 22.4268 39.3597 22.2861 39.219C22.1455 39.0783 21.9547 38.9993 21.7558 38.9993ZM14.2558 41.9993C14.0569 41.9993 13.8662 42.0783 13.7255 42.219C13.5849 42.3596 13.5058 42.5504 13.5058 42.7493V47.2493C13.5058 47.4482 13.5849 47.639 13.7255 47.7796C13.8662 47.9203 14.0569 47.9993 14.2558 47.9993C14.4548 47.9993 14.6455 47.9203 14.7862 47.7796C14.9268 47.639 15.0058 47.4482 15.0058 47.2493V42.7493C15.0058 42.5504 14.9268 42.3596 14.7862 42.219C14.6455 42.0783 14.4548 41.9993 14.2558 41.9993ZM29.2557 35.9994C29.0568 35.9994 28.8661 36.0784 28.7254 36.219C28.5848 36.3597 28.5057 36.5504 28.5057 36.7493V47.2493C28.5057 47.4482 28.5848 47.639 28.7254 47.7796C28.8661 47.9203 29.0568 47.9993 29.2557 47.9993C29.4547 47.9993 29.6454 47.9203 29.7861 47.7796C29.9267 47.639 30.0057 47.4482 30.0057 47.2493V36.7493C30.0057 36.5504 29.9267 36.3597 29.7861 36.219C29.6454 36.0784 29.4547 35.9994 29.2557 35.9994ZM12.0059 20.9995C12.0059 16.036 16.0423 11.9995 21.0058 11.9995C25.9693 11.9995 30.0057 16.036 30.0057 20.9995C30.0057 25.9629 25.9693 29.9994 21.0058 29.9994C16.0423 29.9994 12.0059 25.9629 12.0059 20.9995ZM21.0058 28.4994C22.0813 28.4994 23.0998 28.2624 24.0268 27.8529C24.0223 27.8184 24.0058 27.7869 24.0058 27.7494V26.9994C24.0058 25.3449 22.6603 23.9994 21.0058 23.9994C19.3513 23.9994 18.0058 25.3449 18.0058 26.9994V27.7494C18.0058 27.7854 17.9908 27.8169 17.9848 27.8529C18.9355 28.2774 19.9647 28.4976 21.0058 28.4994ZM13.5058 20.9995C13.5058 23.4414 14.6968 25.5939 16.5088 26.9634C16.5283 24.4989 18.5353 22.4994 21.0058 22.4994C23.4763 22.4994 25.4833 24.4989 25.5028 26.9634C27.3148 25.5924 28.5057 23.4414 28.5057 20.9995C28.5057 16.864 25.1413 13.4995 21.0058 13.4995C16.8703 13.4995 13.5058 16.864 13.5058 20.9995ZM18.0058 17.9995C18.0058 16.345 19.3513 14.9995 21.0058 14.9995C22.6603 14.9995 24.0058 16.345 24.0058 17.9995C24.0058 19.654 22.6603 20.9995 21.0058 20.9995C19.3513 20.9995 18.0058 19.654 18.0058 17.9995ZM19.5058 17.9995C19.5055 18.2966 19.5934 18.5871 19.7582 18.8342C19.9231 19.0814 20.1576 19.274 20.432 19.3879C20.7064 19.5017 21.0085 19.5316 21.2999 19.4737C21.5913 19.4158 21.8589 19.2728 22.069 19.0627C22.2791 18.8526 22.4221 18.5849 22.48 18.2935C22.5379 18.0021 22.508 17.7001 22.3942 17.4257C22.2804 17.1513 22.0877 16.9168 21.8405 16.7519C21.5934 16.587 21.3029 16.4992 21.0058 16.4995C20.1793 16.4995 19.5058 17.1715 19.5058 17.9995Z" stroke="#002DE0" stroke-width="42.6667" mask="url(#path-2-inside-1_1033_2237)"/>
</svg>
