<svg width="60" height="60" viewBox="0 0 60 60" fill="none" xmlns="http://www.w3.org/2000/svg">
<rect x="0.403683" y="0.403683" width="59.1926" height="59.1926" rx="2.82578" stroke="#B6E5D8" stroke-width="0.807365"/>
<path d="M32.0125 17.98L34.5673 19.1993C34.7995 19.3155 35.0318 19.4897 35.206 19.6639M24.8125 19.6639C24.9867 19.4897 25.1609 19.3155 25.4512 19.1993L27.948 17.98" stroke="#12AB81" stroke-width="1.2" stroke-miterlimit="10" stroke-linecap="round" stroke-linejoin="round"/>
<path d="M26.2058 27.272L28.7606 28.4914C28.9929 28.6075 29.2252 28.7817 29.3994 28.9559M19.0059 28.9559C19.1801 28.7817 19.4123 28.6075 19.6446 28.4914L22.1413 27.272M32.6509 14.672V16.1816C32.6509 17.6333 31.5477 18.8526 30.0961 18.9107C28.5865 18.9688 27.309 17.7494 27.309 16.2397V14.672C27.309 13.2203 28.5284 12.001 29.98 12.001C31.4316 12.001 32.6509 13.2203 32.6509 14.672Z" stroke="#12AB81" stroke-width="1.2" stroke-miterlimit="10" stroke-linecap="round" stroke-linejoin="round"/>
<path d="M37.8141 27.2712L40.3689 28.4906C40.6012 28.6067 40.8334 28.7809 41.0076 28.9551M30.6141 28.9551C30.7883 28.7809 31.0206 28.6067 31.2528 28.4906L33.7496 27.2712M26.84 23.9615V25.4712C26.84 26.9228 25.7367 28.1422 24.2851 28.2002C22.7755 28.2583 21.498 27.0389 21.498 25.5293V23.9615C21.498 22.5099 22.7174 21.2905 24.169 21.2905C25.6206 21.2905 26.84 22.5099 26.84 23.9615Z" stroke="#12AB81" stroke-width="1.2" stroke-miterlimit="10" stroke-linecap="round" stroke-linejoin="round"/>
<path d="M20.3953 36.5616L22.8921 37.7809C23.6469 38.1293 24.1695 38.9422 24.1695 39.8132V48.0003H12.5566V39.8132C12.5566 38.9422 13.0212 38.1874 13.8341 37.7809L16.3308 36.5616M38.4533 23.9615V25.4712C38.4533 26.9228 37.3501 28.1422 35.8985 28.2002C34.3888 28.2583 33.1114 27.0389 33.1114 25.5293V23.9615C33.1114 22.5099 34.3307 21.2905 35.7823 21.2905C37.2339 21.2905 38.4533 22.5099 38.4533 23.9615Z" stroke="#12AB81" stroke-width="1.2" stroke-miterlimit="10" stroke-linecap="round" stroke-linejoin="round"/>
<path d="M32.0074 36.5623L34.5623 37.7816C35.3171 38.13 35.8397 38.9429 35.8397 39.8139V48.001H24.1688V39.8139C24.1688 38.9429 24.6333 38.1881 25.4462 37.7816L27.943 36.5623M21.0333 33.3106V34.8203C21.0333 36.2719 19.9301 37.4913 18.4785 37.5494C16.9688 37.6074 15.6914 36.3881 15.6914 34.8784V33.3106C15.6914 31.859 16.9108 30.6396 18.3624 30.6396C19.814 30.6396 21.0333 31.8009 21.0333 33.3106Z" stroke="#12AB81" stroke-width="1.2" stroke-miterlimit="10" stroke-linecap="round" stroke-linejoin="round"/>
<path d="M43.6227 36.5623L46.1775 37.7816C46.9323 38.13 47.4549 38.9429 47.4549 39.8139V48.001H35.784V39.8139C35.784 38.9429 36.2485 38.1881 37.0614 37.7816L39.5582 36.5623M32.6485 33.3106V34.8203C32.6485 36.2719 31.5453 37.4913 30.0937 37.5494C28.5841 37.6074 27.3066 36.3881 27.3066 34.8784V33.3106C27.3066 31.859 28.526 30.6396 29.9776 30.6396C31.4292 30.6396 32.6485 31.8009 32.6485 33.3106Z" stroke="#12AB81" stroke-width="1.2" stroke-miterlimit="10" stroke-linecap="round" stroke-linejoin="round"/>
<path d="M44.2618 33.3106V34.8203C44.2618 36.2719 43.1586 37.4913 41.707 37.5494C40.1973 37.6074 38.9199 36.3881 38.9199 34.8784V33.3106C38.9199 31.859 40.1393 30.6396 41.5909 30.6396C43.1005 30.6396 44.2618 31.8009 44.2618 33.3106Z" stroke="#12AB81" stroke-width="1.2" stroke-miterlimit="10" stroke-linecap="round" stroke-linejoin="round"/>
</svg>
