<svg width="85" height="50" viewBox="0 0 85 50" fill="none" xmlns="http://www.w3.org/2000/svg">
<path fill-rule="evenodd" clip-rule="evenodd" d="M59.893 19.897C57.2103 19.7931 55.5466 21.6647 52.8015 21.332C50.6387 21.0824 49.5989 19.6059 46.7498 19.897C44.3375 20.1258 42.7778 21.6023 40.6982 21.332C38.5978 21.0616 37.1212 19.4603 34.1266 20.0218C32.8164 20.2714 31.839 21.1448 30.4457 21.332C27.6382 21.7271 26.0161 19.8762 23.3542 19.7515C22.9591 13.5334 25.2883 8.62554 28.6156 5.29816C31.7143 2.19954 36.4974 -0.337584 42.7986 0.0367461C52.9471 0.681426 60.1841 8.70873 59.893 19.897Z" fill="#E26717"/>
<path fill-rule="evenodd" clip-rule="evenodd" d="M0.146405 1.24349C7.21709 1.01473 14.8701 0.869159 17.4904 5.56908C19.5076 9.16681 18.6342 15.676 14.9948 17.1317C19.57 18.0883 21.6912 24.3896 19.7156 29.4846C19.0293 31.2523 17.6567 32.8952 16.305 33.8102C12.1874 36.6177 6.23967 35.3283 0.000831845 35.6611C0.000831845 24.3064 0.000831845 12.9725 0.000831845 1.63861C0.000831845 1.45145 -0.0199643 1.26428 0.146405 1.24349ZM4.86712 6.23456C4.95031 9.35397 4.70076 12.8061 4.9919 15.6968C7.84097 15.5304 10.5029 15.884 12.3537 14.3866C14.1838 12.8893 14.267 8.83407 12.4785 7.17038C10.9604 5.75625 8.2153 5.92262 5.11668 5.86023C4.9711 5.88102 4.86712 6.0058 4.86712 6.23456ZM4.86712 20.0224C4.86712 23.7033 4.86712 27.3842 4.86712 31.0651C8.58963 30.9819 12.0834 31.3563 14.059 29.755C16.1386 28.0705 15.9515 23.5577 14.3294 21.6029C12.4993 19.4193 8.83918 19.6481 5.13747 19.6273C4.97111 19.6896 4.86712 19.7936 4.86712 20.0224Z" fill="#7C7C7C"/>
<path fill-rule="evenodd" clip-rule="evenodd" d="M63.4511 1.24253C70.5634 1.3881 77.1974 0.389891 80.9199 3.61329C82.7084 5.1522 84.1433 7.73092 84.2057 11.0999C84.3512 19.2728 77.8213 22.4754 68.3174 21.7475C68.0055 26.1355 68.2758 31.0642 68.1927 35.6601C66.5706 35.6601 64.9485 35.6601 63.3264 35.6601C63.3264 24.3262 63.3264 12.9715 63.3264 1.63766C63.3056 1.45049 63.2848 1.26333 63.4511 1.24253ZM68.1719 6.08803C68.1719 9.76894 68.1719 13.4499 68.1719 17.1308C72.2271 17.4427 76.5735 17.4219 78.2788 15.1551C80.2128 12.618 79.1938 8.12605 76.9686 6.7535C74.6603 5.33937 71.6656 5.83847 68.4214 5.6929C68.2758 5.75529 68.1719 5.88007 68.1719 6.08803Z" fill="#7C7C7C"/>
<path fill-rule="evenodd" clip-rule="evenodd" d="M59.6449 21.8521C59.8321 23.4326 58.0852 23.2455 57.1494 23.5574C55.7353 24.0357 54.9866 24.8468 52.9486 24.618C50.3907 24.3269 49.4133 22.6424 45.9819 23.3079C44.443 23.599 43.2368 24.93 40.8661 24.618C38.6201 24.3269 37.6011 22.8296 34.5648 23.1831C33.2131 23.3287 31.9653 24.4309 30.364 24.618C27.5357 24.9716 25.9552 23.0375 23.7924 23.0375C23.9588 22.5384 23.3973 22.1225 23.7924 21.8521C25.872 22.0601 27.7229 23.4534 30.0937 23.2871C32.0485 23.1623 33.6706 21.4362 36.5197 21.8521C38.2457 22.1017 39.5975 23.2039 41.1156 23.2871C44.235 23.4742 45.254 21.2699 48.727 21.8521C50.765 22.1849 51.5968 23.495 54.238 23.2871C56.2968 23.1623 57.295 21.8729 59.6449 21.8521Z" fill="#E26717"/>
<path fill-rule="evenodd" clip-rule="evenodd" d="M58.7078 25.138C58.4998 25.5539 58.3126 25.9698 58.1879 26.4481C57.0025 26.6145 55.9211 27.5919 54.7773 27.7583C51.6787 28.2158 48.9752 25.7411 45.5854 26.5729C43.5058 27.072 42.4036 28.195 40.1992 27.6335C37.4541 26.9264 36.3935 25.8866 33.6277 26.5729C32.671 26.8225 31.9016 27.5711 30.737 27.7583C28.5118 28.1326 27.0561 27.0512 25.0804 26.5729C25.0181 25.9698 24.6645 25.6787 24.5605 25.138C26.2034 25.5955 27.7632 26.5937 29.5516 26.5729C31.1945 26.5729 32.3799 25.5539 34.1476 25.138C36.6223 24.5349 38.7851 26.5729 41.5094 26.5729C43.6098 26.5937 45.523 25.0132 47.5611 24.9924C49.5367 24.9716 51.346 26.5313 53.4672 26.5729C55.5468 26.6353 56.6906 25.6579 58.7078 25.138Z" fill="#E26717"/>
<path fill-rule="evenodd" clip-rule="evenodd" d="M52.8016 32.8951C52.4481 33.3318 51.845 33.5189 51.4915 33.9557C50.0565 33.2486 49.1415 32.7911 47.6858 32.7703C45.5438 32.7495 43.5889 34.33 41.6341 34.3508C39.7001 34.3716 37.7868 32.7911 35.5824 32.7703C34.1891 32.7703 33.1285 33.1446 31.7767 33.9557C31.2568 33.6853 30.9033 33.2486 30.3418 33.0406C32.5878 32.6247 34.0435 31.273 36.5182 31.6057C38.2443 31.8345 39.6793 33.0198 41.3845 33.0406C43.2354 33.0822 44.6079 31.8761 46.5004 31.6057C48.9959 31.2106 50.4309 32.6663 52.8016 32.8951Z" fill="#E26717"/>
<path fill-rule="evenodd" clip-rule="evenodd" d="M49.6627 34.8708C49.226 35.3907 48.207 35.3283 47.6871 35.7858C45.6907 35.3699 44.2765 36.9296 42.4257 37.096C39.8262 37.3455 38.2248 35.6818 35.459 35.7858C34.9599 35.4115 34.2528 35.2451 33.6289 34.9956C35.5837 33.5398 38.2872 35.6403 40.45 35.9106C43.8606 36.3265 46.3977 33.6854 49.6627 34.8708Z" fill="#E26717"/>
<path fill-rule="evenodd" clip-rule="evenodd" d="M84.2035 38.8013C56.7111 39.4044 28.0748 38.8845 0.145601 39.0716C0.0416202 39.0924 0.020824 39.03 0.020824 38.9468C2.79078e-05 38.8013 0.0416202 38.7181 0.145601 38.6765C28.1164 38.7597 56.4407 38.4893 84.2035 38.8013Z" fill="#7C7C7C"/>
<path fill-rule="evenodd" clip-rule="evenodd" d="M42.9669 41.2963C48.4779 40.2565 47.854 49.1988 42.5718 47.7223C39.7435 46.9528 39.4524 41.9618 42.9669 41.2963ZM44.1315 46.9528C46.939 46.4953 46.2735 41.8578 43.466 42.0865C40.0139 42.3777 41.0745 47.4519 44.1315 46.9528Z" fill="#7C7C7C"/>
<path fill-rule="evenodd" clip-rule="evenodd" d="M0 41.2964C1.0606 41.3795 2.45394 41.13 3.28579 41.4211C3.28579 41.5459 3.28579 41.6915 3.28579 41.8163C3.32738 42.357 2.47474 41.9618 2.10041 42.0866C2.10041 43.9791 2.10041 45.8507 2.10041 47.7432C0.748661 48.0343 1.18538 46.329 1.18538 45.3724C1.18538 44.2286 1.18538 43.0224 1.18538 42.2114C1.03981 41.9202 0.353534 42.1698 0 42.0866C0 41.8163 0 41.5667 0 41.2964Z" fill="#7C7C7C"/>
<path fill-rule="evenodd" clip-rule="evenodd" d="M3.95117 41.4214C4.01356 41.1302 4.59585 41.359 4.8662 41.2966C4.8662 42.17 4.8662 43.0435 4.8662 43.9169C5.49009 44.2288 6.65467 43.9585 7.48651 44.0417C7.98562 43.4594 7.07059 41.4422 8.00642 41.2758C8.71348 41.6085 8.40154 43.3554 8.40154 44.4368C8.40154 45.6222 8.6095 47.0571 8.13119 47.7226C7.04979 47.7226 7.86084 45.8093 7.61129 44.9567C6.92502 44.6656 5.73964 44.8943 4.84541 44.8319C4.76222 45.7469 5.01177 47.0155 4.72063 47.7226C4.59585 47.7226 4.45028 47.7226 4.3255 47.7226C3.7848 47.3482 4.05515 46.0173 4.05515 44.9567C4.05515 43.8129 4.05515 42.5859 4.05515 41.6709C4.09674 41.5461 4.05515 41.4629 3.95117 41.4214Z" fill="#7C7C7C"/>
<path fill-rule="evenodd" clip-rule="evenodd" d="M9.58879 41.2964C10.6494 41.3795 12.0427 41.13 12.8746 41.4211C12.8746 41.5459 12.8746 41.6915 12.8746 41.8163C12.625 42.3986 11.3149 41.9202 10.6494 42.0866C10.3375 42.4817 10.6078 43.4384 10.5246 44.0622C11.2733 44.1454 12.3547 43.8959 12.8954 44.187C12.8954 44.3118 12.8954 44.4574 12.8954 44.5822C12.6458 45.1644 11.3357 44.6861 10.6702 44.8525C10.3583 45.2476 10.6286 46.2042 10.5454 46.8281C11.0445 47.1609 12.6042 46.8281 12.9162 46.9529C12.9162 47.1193 12.9162 47.3064 12.9162 47.4728C12.3755 48.0759 10.7326 47.5768 9.75516 47.7432C9.42243 45.8507 9.67198 43.3968 9.58879 41.2964Z" fill="#7C7C7C"/>
<path fill-rule="evenodd" clip-rule="evenodd" d="M16.6797 41.4208C18.7385 40.4642 21.3588 42.4398 19.5703 44.0411C21.6084 45.58 19.9031 48.5746 16.8045 47.722C16.7421 45.684 16.9916 43.2716 16.6797 41.4208ZM17.7403 44.0619C19.7575 44.457 19.8199 41.5456 17.6155 42.0863C17.6571 42.7309 17.4699 43.6252 17.7403 44.0619ZM17.6155 46.9526C20.2566 47.5972 20.319 44.0619 17.6155 44.7274C17.6155 45.4552 17.6155 46.2039 17.6155 46.9526Z" fill="#7C7C7C"/>
<path fill-rule="evenodd" clip-rule="evenodd" d="M24.0414 41.2969C24.7069 43.5637 25.7467 45.4561 26.4122 47.7229C26.1834 47.7229 25.9755 47.7229 25.7467 47.7229C25.1436 47.3693 25.1228 46.4127 24.8317 45.7472C23.9998 45.7472 23.168 45.7472 22.3361 45.7472C21.6707 46.3087 22.149 48.014 20.6309 47.7229C21.4003 45.5185 22.2738 43.3973 23.1264 41.2969C23.4383 41.2969 23.7295 41.2969 24.0414 41.2969ZM22.6065 44.9778C23.2096 44.9778 23.8335 44.9778 24.4366 44.9778C24.1454 44.1459 24.0414 43.1061 23.3759 42.607C23.2096 43.4805 22.7937 44.1044 22.6065 44.9778Z" fill="#7C7C7C"/>
<path fill-rule="evenodd" clip-rule="evenodd" d="M26.9326 41.2961C28.2428 41.0466 28.7211 42.7519 29.3034 43.6669C29.9481 44.6443 30.5304 45.4346 31.0087 46.0377C31.0087 45.289 31.0087 44.3532 31.0087 43.4173C31.0087 42.6895 30.6967 41.4833 31.4038 41.3169C32.1109 41.6705 31.7989 43.3966 31.7989 44.478C31.7989 45.6633 31.9029 46.9111 31.6742 47.7637C30.4472 47.6182 30.1144 46.2248 29.5737 45.393C28.9707 44.4779 28.3884 43.5629 27.7437 42.7727C27.5773 44.3532 28.0764 46.62 27.4733 47.7637C26.5375 47.5558 26.9534 45.9753 26.9534 44.9979C26.9534 43.8541 26.9534 42.6271 26.9534 41.7121C26.9326 41.5665 26.9326 41.4209 26.9326 41.2961Z" fill="#7C7C7C"/>
<path fill-rule="evenodd" clip-rule="evenodd" d="M33.8992 41.2962C33.7329 43.355 34.2528 46.1001 33.6289 47.7222C32.7347 47.743 33.109 45.8713 33.109 44.8315C33.109 43.6669 33.109 42.44 33.109 41.6705C33.109 41.5457 33.109 41.4002 33.109 41.2754C33.3585 41.2962 33.6289 41.2962 33.8992 41.2962Z" fill="#7C7C7C"/>
<path fill-rule="evenodd" clip-rule="evenodd" d="M37.434 41.2969C36.7061 42.4199 35.8119 43.3557 35.0632 44.4579C35.7911 45.5809 36.5814 46.6207 37.434 47.6189C35.396 48.0348 35.2504 45.4353 34.0234 44.6035C35.2296 43.5429 35.3128 41.4009 37.434 41.2969Z" fill="#7C7C7C"/>
<path fill-rule="evenodd" clip-rule="evenodd" d="M47.8115 41.2964C48.7681 41.3795 50.0783 41.13 50.8269 41.4211C50.8269 41.5459 50.8269 41.6915 50.8269 41.8163C50.619 42.3986 49.3712 41.9202 48.7265 42.0866C48.4146 42.4817 48.6849 43.4384 48.6017 44.0622C49.3088 44.1454 50.3486 43.8959 50.8269 44.187C50.8269 44.3118 50.8269 44.4574 50.8269 44.5822C50.619 45.1644 49.3712 44.6861 48.7265 44.8525C48.3314 45.518 48.8513 47.0777 48.4562 47.7432C48.3314 47.7432 48.1858 47.7432 48.061 47.7432C47.4787 46.1003 47.9778 43.3552 47.8115 41.2964Z" fill="#7C7C7C"/>
<path fill-rule="evenodd" clip-rule="evenodd" d="M54.7777 41.2959C59.228 39.8194 59.8935 45.8918 55.5679 45.1016C55.4015 45.9126 55.9006 47.3476 55.2976 47.7219C54.3617 47.5139 54.7777 45.9334 54.7777 44.956C54.7777 43.8122 54.7777 42.5853 54.7777 41.6702C54.7777 41.5662 54.7777 41.4207 54.7777 41.2959ZM55.5679 44.3113C56.5245 44.3945 57.2732 44.2697 57.6683 43.7914C57.6683 43.3963 57.6683 43.0012 57.6683 42.6061C57.294 42.1069 56.5245 42.003 55.5679 42.0861C55.5679 42.8348 55.5679 43.5835 55.5679 44.3113Z" fill="#7C7C7C"/>
<path fill-rule="evenodd" clip-rule="evenodd" d="M59.8942 41.2962C60.7676 42.7935 59.3327 46.4328 60.9548 46.9527C63.5959 47.7846 61.9322 42.9599 62.7849 41.2962C62.8681 41.2962 62.9512 41.2962 63.0552 41.2962C63.7623 41.5041 63.4503 42.7103 63.4503 43.5214C63.4503 44.9563 63.6167 46.6408 62.9304 47.3271C62.2026 48.0549 60.3101 48.0549 59.6447 47.0567C58.7712 45.7466 59.7486 43.2718 59.3743 41.2754C59.5407 41.2962 59.7278 41.2962 59.8942 41.2962Z" fill="#7C7C7C"/>
<path fill-rule="evenodd" clip-rule="evenodd" d="M64.4895 41.297C65.8412 41.0058 66.4027 42.7527 66.985 43.6677C67.6089 44.6451 68.1496 45.3938 68.5655 46.0385C69.0438 44.8115 68.2744 42.316 68.9606 41.3178C69.8757 41.401 69.4805 43.3766 69.4805 44.3332C69.4805 45.5394 69.4805 46.7872 69.4805 47.7438C68.0664 47.7646 67.7753 46.2049 67.2554 45.373C66.6523 44.4372 65.9868 43.6053 65.4253 42.7527C65.2381 43.9381 65.6749 46.3712 65.3005 47.7438C64.032 47.8685 64.5103 46.1009 64.5103 45.1235C64.5103 43.8965 64.5103 42.6071 64.5103 41.7129C64.4895 41.5673 64.4895 41.4218 64.4895 41.297Z" fill="#7C7C7C"/>
<path fill-rule="evenodd" clip-rule="evenodd" d="M72.7661 41.2969C73.0365 41.2969 73.286 41.2969 73.5564 41.2969C73.1196 43.1269 74.2426 45.8512 73.286 47.203C72.5789 48.2012 70.2498 48.0972 70.125 46.2879C71.248 45.9968 71.0192 47.0574 71.8303 47.0782C73.4524 46.4543 72.4958 43.2725 72.7661 41.2969Z" fill="#7C7C7C"/>
<path fill-rule="evenodd" clip-rule="evenodd" d="M77.3637 41.2969C78.0084 43.5844 79.0482 45.4769 79.7344 47.7229C79.5057 47.7229 79.2977 47.7229 79.069 47.7229C78.4867 47.3485 78.3827 46.4751 78.1539 45.7472C77.3221 45.7472 76.4902 45.7472 75.6584 45.7472C75.2217 46.2671 75.1385 47.1614 74.7434 47.7229C74.473 47.7229 74.2235 47.7229 73.9531 47.7229C74.6186 45.4561 75.6792 43.5844 76.3239 41.2969C76.6774 41.2969 77.0102 41.2969 77.3637 41.2969ZM75.9288 44.9778C76.5318 44.9778 77.1557 44.9778 77.7588 44.9778C77.4261 44.1667 77.3637 43.1061 76.6982 42.607C76.5318 43.4805 76.0743 44.0836 75.9288 44.9778Z" fill="#7C7C7C"/>
<path fill-rule="evenodd" clip-rule="evenodd" d="M80.2539 41.2965C82.7702 40.5895 84.7043 42.7107 83.0198 44.1872C85.1826 45.6221 83.2278 48.6376 80.2539 47.7433C80.2539 45.5805 80.2539 43.4385 80.2539 41.2965ZM81.1689 44.0624C81.8344 44.0416 82.4167 43.8961 82.7494 43.5425C82.791 43.0642 82.7286 42.6899 82.6247 42.3571C82.1671 42.1908 81.7512 42.0036 81.0442 42.0868C81.1066 42.7315 80.9194 43.6257 81.1689 44.0624ZM81.1689 46.9531C82.6871 47.2234 83.6437 46.1836 82.8742 44.9774C82.3959 44.7487 81.7928 44.6447 81.0442 44.7071C81.1066 45.435 80.8986 46.4332 81.1689 46.9531Z" fill="#7C7C7C"/>
<path fill-rule="evenodd" clip-rule="evenodd" d="M84.2035 49.6985C56.7111 50.3016 28.0748 49.7817 0.145601 49.9688C0.0416202 49.9896 0.020824 49.9272 0.020824 49.8441C2.79078e-05 49.6985 0.0416202 49.6153 0.145601 49.5737C28.1164 49.6569 56.4407 49.4073 84.2035 49.6985Z" fill="#7C7C7C"/>
<path fill-rule="evenodd" clip-rule="evenodd" d="M26.8066 29.3392C26.8274 29.1936 26.9314 29.256 26.9314 29.3392C30.6539 31.0237 33.607 27.5299 37.1839 28.4241C38.7852 28.8193 39.5131 29.8383 41.9046 29.7343C43.9634 29.6511 46.2926 27.6547 49.2665 28.4241C51.1173 28.9024 51.6788 29.8383 53.9872 29.7343C54.6734 29.7135 55.3805 29.6095 56.2124 29.2144C55.942 30.0254 55.3597 30.8573 54.5071 31.0444C52.5107 31.502 50.2855 29.7135 48.0811 29.6095C44.8993 29.4431 43.6723 31.7099 40.1993 30.9197C39.3051 30.7117 38.3485 30.0254 37.8286 29.8591C34.7716 28.944 33.2742 30.379 31.1322 30.9197C28.5535 31.5644 27.7633 30.6701 26.8066 29.3392Z" fill="#E26717"/>
</svg>
