<svg width="195" height="50" viewBox="0 0 195 50" fill="none" xmlns="http://www.w3.org/2000/svg">
<path fill-rule="evenodd" clip-rule="evenodd" d="M180.98 30.9499C180.28 30.0065 179.488 28.7284 179.123 27.4502C178.758 25.6243 179.58 24.7722 181.284 25.2591C182.501 25.5939 183.353 26.5981 183.992 27.6632C184.571 29.0327 182.593 32.2281 181.132 34.267C172.367 38.5579 161.107 36.6407 156.177 33.6584C154.169 31.3455 153.408 28.9718 154.108 26.7807C156.908 24.7113 160.134 25.1069 163.39 28.1806C161.381 27.7545 159.373 27.7241 157.79 28.3023C154.108 30.7065 158.308 34.5409 161.412 32.1976C165.185 29.8239 169.324 28.8805 174.011 30.1891C175.319 30.5847 176.719 31.1629 178.18 32.0455C179.245 32.715 180.249 32.7758 181.101 32.3498C181.953 31.9237 182.288 31.2542 182.532 30.3717C182.745 29.55 182.775 28.7588 182.562 27.998C182.167 26.7807 181.406 26.5372 180.888 27.2981C180.341 28.0589 180.919 29.9761 180.98 30.9499ZM164.911 33.6888C167.437 33.8105 169.75 33.7192 171.546 33.0802C171.789 32.9889 171.728 33.0193 171.515 32.9584C168.959 32.2585 166.798 32.5628 164.911 33.5062C164.607 33.6584 164.485 33.6584 164.911 33.6888Z" fill="#727678" stroke="black" stroke-width="0.5" stroke-miterlimit="2.6131"/>
<path fill-rule="evenodd" clip-rule="evenodd" d="M167.528 32.1062C169.445 29.0934 171.423 26.2023 174.223 24.772C175.867 24.1938 177.175 24.1329 177.784 25.1676C178.423 26.2328 177.966 27.3892 177.632 28.4847C177.053 30.3107 176.171 31.9844 175.136 33.5669C174.223 34.1451 173.615 34.7233 173.523 35.2407C168.106 36.2145 161.716 35.3015 159.129 34.5103C159.281 33.8104 159.768 33.7191 160.559 33.6278C161.929 33.5365 163.329 33.5973 164.728 33.6582C164.759 33.6582 164.85 33.6582 164.911 33.6582C166.372 33.7495 167.772 33.7495 169.05 33.5973C169.598 33.5365 170.115 33.4452 170.632 33.3235H170.663H170.724C170.997 33.2626 171.271 33.1713 171.545 33.08C171.606 33.0496 171.637 33.0496 171.667 33.0191C171.789 32.9583 171.91 32.9278 172.032 32.867C173.675 32.0757 174.893 30.9193 175.714 29.3673C176.445 27.0544 174.284 26.3545 172.306 27.9065L167.528 32.1062Z" fill="#727678" stroke="black" stroke-width="0.5" stroke-miterlimit="2.6131"/>
<path fill-rule="evenodd" clip-rule="evenodd" d="M178.696 22.7334C179.244 22.7334 179.67 23.1594 179.67 23.6464C179.67 24.1637 179.244 24.5593 178.696 24.5593C178.149 24.5593 177.723 24.1333 177.723 23.6464C177.723 23.129 178.179 22.7334 178.696 22.7334Z" fill="#727678" stroke="black" stroke-width="0.5" stroke-miterlimit="2.6131"/>
<path fill-rule="evenodd" clip-rule="evenodd" d="M176.841 33.5059C177.389 33.5059 177.815 33.9319 177.815 34.4188C177.815 34.9057 177.389 35.3318 176.841 35.3318C176.293 35.3318 175.867 34.9057 175.867 34.4188C175.867 33.9319 176.293 33.5059 176.841 33.5059Z" fill="#727678" stroke="black" stroke-width="0.5" stroke-miterlimit="2.6131"/>
<path fill-rule="evenodd" clip-rule="evenodd" d="M174.709 34.0234C175.196 34.0234 175.561 34.3886 175.561 34.8451C175.561 35.3016 175.166 35.6668 174.709 35.6668C174.222 35.6668 173.857 35.3016 173.857 34.8451C173.827 34.3886 174.222 34.0234 174.709 34.0234Z" fill="#727678" stroke="black" stroke-width="0.5" stroke-miterlimit="2.6131"/>
<path fill-rule="evenodd" clip-rule="evenodd" d="M151.522 17.6506L144.188 24.9848L151.522 32.3189V42.6659H161.869L169.203 50L176.537 42.6659H186.884V32.3189L194.157 24.9848L186.823 17.6506V7.30371H176.476L169.172 0L161.838 7.33414H151.491V17.6506H151.522ZM168.807 9.82958C168.929 11.1686 169.598 12.4163 170.603 13.6032C172.611 15.2465 176.02 16.3421 178.606 18.1376C180.554 19.4766 181.771 20.7547 182.775 22.9763C184.723 27.2672 183.262 30.5843 180.371 33.8101C180.006 33.9014 179.611 34.1753 179.245 34.2666C171.942 36.0925 164.516 36.0621 159.069 34.51C157.943 34.1753 157.304 33.9318 156.482 33.1102C152.709 29.3974 153.195 23.5545 157.578 19.2635C160.408 16.6464 163.968 16.0073 166.951 13.6336C167.955 12.4467 168.594 11.199 168.807 9.82958Z" fill="url(#paint0_linear_1227_1838)"/>
<path d="M0 34.9359V34.1142C1.49117 33.7795 2.31284 33.5664 2.465 33.2926C2.6476 32.9274 2.76932 30.3102 2.76932 25.9584C2.76932 23.8282 2.76932 21.9718 2.83019 19.8416L0.213025 19.7198C0.121729 19.1416 0.304321 18.8677 0.699939 18.8069L2.76932 18.5634C2.76932 16.494 2.89105 14.1507 2.98235 13.6638C3.16494 12.7813 3.62142 11.9292 4.32136 11.0771C5.0213 10.225 5.9647 9.49463 7.12112 8.91642C7.94279 8.49037 8.85575 8.33821 9.82958 8.27734C15.4291 7.91216 13.2075 13.7247 10.8947 10.7119C10.4687 10.1337 9.67742 9.98154 8.82532 9.98154C8.06452 9.98154 7.45587 10.225 6.96896 10.6815C6.48205 11.138 6.14729 11.8683 5.93427 12.8422C5.81254 13.4812 5.72124 14.7898 5.72124 16.7375C5.72124 16.9809 5.72124 17.9852 5.72124 18.4721L9.73828 18.533C11.3208 18.5634 10.0426 19.9329 8.91662 19.9329L5.75167 19.9024C5.72124 21.6371 5.69081 23.5238 5.72124 26.2932L5.75167 31.0101C5.75167 31.5579 5.59951 33.1708 5.99513 33.5969C6.20816 33.8099 8.27754 34.1447 8.97748 33.9316V34.9359H0Z" fill="#2C2767"/>
<path fill-rule="evenodd" clip-rule="evenodd" d="M12.1112 21.82C11.107 26.0501 7.57684 21.607 10.7418 20.6027C13.8763 18.3812 16.8282 17.3161 19.2932 18.7768C21.18 20.2375 21.2713 24.8632 20.8757 30.3714C20.4496 33.0495 21.6365 33.6885 23.9189 32.9582C23.0668 33.6277 21.3017 35.5145 20.2062 35.484C19.0802 35.4536 18.4107 34.6015 18.1064 32.8973L15.337 34.6624C13.572 35.7884 11.2896 35.2406 10.0114 33.7798C8.30721 31.8322 9.09845 28.9716 11.0461 27.5717C12.6286 26.4457 14.6067 26.4457 18.0455 24.5893C18.2281 22.0939 17.589 20.5419 16.0978 19.9332C14.4849 19.2637 13.2068 20.1767 12.1112 21.82ZM18.1977 25.8979L18.2585 31.8626C14.698 34.2059 12.6894 33.9929 12.4156 30.9497C12.2634 29.3063 12.6894 28.4238 14.1806 27.5108C15.2153 26.8413 16.6152 26.2935 18.1977 25.8979Z" fill="#2C2767"/>
<path d="M27.5121 41.3257C27.3295 46.2253 20.9996 43.1821 26.2644 40.0171C26.9643 39.5911 28.3946 35.9697 28.8207 35.0871L23.9819 22.1535C23.6776 21.3014 23.4342 20.7232 23.2516 20.3884C23.069 20.0536 22.856 19.8102 22.6429 19.6276C22.4299 19.445 22.0952 19.3233 21.6387 19.232V18.3799H28.6381V19.232C28.0903 19.3537 27.7251 19.4754 27.5121 19.5972C27.2991 19.7189 27.1165 19.8711 27.0252 20.0537C26.9339 20.2362 26.873 20.4797 26.873 20.784C26.873 21.0883 26.9034 21.4231 26.9947 21.7578C27.0556 22.0926 27.1469 22.4882 27.3599 22.9447L30.7379 30.7658L33.842 23.3099C34.0246 22.8534 34.1767 22.4274 34.2984 22.0622C34.4202 21.6666 34.4506 21.3318 34.4506 20.997C34.4506 20.5101 34.3289 20.1145 34.055 19.8711C33.7811 19.6276 33.3246 19.4146 32.6551 19.2624V18.4103H39.0763V19.2624C38.6198 19.3537 38.2851 19.5059 38.0416 19.6885C37.7981 19.8711 37.5547 20.1754 37.3112 20.571C37.0678 20.9666 36.7939 21.5448 36.4591 22.2752C33.5072 28.5746 30.5249 34.9045 27.5729 41.204C27.5425 41.2344 27.5121 41.2648 27.5121 41.3257Z" fill="#2C2767"/>
<path d="M39.1047 29.5188C39.5917 30.7666 39.9568 31.5578 40.2003 31.923C40.6872 32.6838 41.2654 33.262 41.9654 33.6576C42.6653 34.0837 43.3957 34.2662 44.1869 34.2662C44.9173 34.2662 45.6476 33.9315 46.378 33.2924C46.8954 32.8055 47.1693 32.2577 47.1693 31.6187C47.1693 30.7666 46.8649 29.9753 46.2563 29.2754C45.6476 28.5754 44.4912 27.8755 42.8175 27.2364C41.1133 26.5974 39.9873 25.8974 39.4091 25.167C38.8308 24.4367 38.5265 23.615 38.5265 22.6412C38.5265 21.7586 38.77 20.9674 39.2265 20.2979C39.7134 19.6284 40.3525 19.111 41.2046 18.7459C42.0567 18.4111 42.8175 18.2285 43.5174 18.2285C44.4304 18.2285 45.252 18.2894 45.9824 18.4415C46.7128 18.5937 47.3518 18.8067 47.8692 19.111C47.9605 19.7806 48.0518 20.7544 48.1127 22.063L48.1431 22.702C47.9909 22.702 47.8388 22.7325 47.717 22.7325H47.4431C47.0475 21.6369 46.4693 20.7848 45.6781 20.1457C44.8868 19.5067 44.0956 19.2023 43.3348 19.2023C42.574 19.2023 41.9349 19.4458 41.448 19.9327C40.9611 20.4196 40.7481 21.0283 40.7481 21.8195C40.7481 22.3977 40.9307 22.9455 41.3263 23.3715C41.7219 23.828 42.6044 24.3454 44.0347 24.9236C45.4651 25.5018 46.4997 26.0496 47.1388 26.5669C47.7779 27.0538 48.2648 27.6929 48.5691 28.3928C48.8735 29.1232 49.0256 29.7927 49.0256 30.4622C49.0256 31.3752 48.7213 32.1969 48.1431 32.9881C47.5649 33.7793 46.8345 34.3271 45.952 34.6619C45.0694 34.9966 44.2782 35.1488 43.5783 35.1488C41.9349 35.1488 40.4438 34.8445 39.0439 34.2358C38.9221 34.1141 38.8308 33.9315 38.8308 33.6576C38.8308 33.5359 38.8308 33.3533 38.8004 33.0794C38.5874 31.3143 38.4961 30.2796 38.4961 29.9449C38.4961 29.7927 38.5265 29.671 38.5874 29.6406C38.6483 29.5493 38.8308 29.5188 39.1047 29.5188Z" fill="#2C2767"/>
<path fill-rule="evenodd" clip-rule="evenodd" d="M53.0437 21.82C52.0394 26.0501 48.5093 21.607 51.6742 20.6027C54.8088 18.3812 57.7607 17.3161 60.2257 18.7768C62.1125 20.2375 62.2038 24.8632 61.8081 30.3714C61.3821 33.0495 62.5689 33.6885 64.8514 32.9582C63.7558 33.8103 61.9907 35.971 60.4996 35.3623C59.7692 35.058 59.2823 34.2363 59.0693 32.9277L56.2999 34.6928C54.5349 35.8188 52.2525 35.271 50.9743 33.8103C49.2701 31.8626 50.0613 29.002 52.009 27.6021C53.5915 26.4761 55.5696 26.4761 59.0084 24.6198C59.191 22.1243 58.5519 20.5723 57.0607 19.9636C55.4478 19.2637 54.1697 20.1767 53.0437 21.82ZM59.1605 25.8979L59.2214 31.8626C55.6609 34.2059 53.6523 33.9929 53.3784 30.9497C53.2263 29.3063 53.6523 28.4238 55.1435 27.5108C56.1478 26.8413 57.5781 26.2935 59.1605 25.8979Z" fill="#2C2767"/>
<path fill-rule="evenodd" clip-rule="evenodd" d="M63.3594 9.19074C65.4592 8.88641 67.4677 8.4908 69.3241 7.82129L69.4762 32.38C70.1457 33.4451 71.2717 33.8712 72.702 33.9016L72.6412 34.9668C70.3892 34.9668 68.3807 34.4798 66.7373 33.2321V10.3472L63.3594 9.19074Z" fill="#2C2767"/>
<path fill-rule="evenodd" clip-rule="evenodd" d="M91.7546 21.819C90.7504 26.0491 87.2202 21.606 90.3852 20.6017C93.5197 18.3802 96.4716 17.3151 98.9366 18.7758C100.823 20.2366 100.915 24.8622 100.519 30.3705C100.093 33.0485 101.28 33.6876 103.562 32.9572C102.588 33.718 100.915 35.6352 99.6365 35.4831C98.6627 35.3309 98.0541 34.4788 97.7802 32.9268L95.0109 34.6918C93.2458 35.8178 90.9634 35.27 89.6852 33.8093C87.981 31.8616 88.7723 29.001 90.7199 27.6011C92.3024 26.4751 94.2805 26.4751 97.7193 24.6188C97.9019 22.1234 97.2628 20.5713 95.7717 19.9627C94.1588 19.2627 92.8806 20.1757 91.7546 21.819ZM97.8715 25.8969L97.9323 31.8616C94.3718 34.2049 92.3633 33.9919 92.0894 30.9487C91.9372 29.3053 92.3633 28.4228 93.8544 27.5098C94.8587 26.8403 96.289 26.2926 97.8715 25.8969Z" fill="#136F76" stroke="#4D4D4D" stroke-width="0.216" stroke-miterlimit="2.6131"/>
<path fill-rule="evenodd" clip-rule="evenodd" d="M82.0465 18.3202C80.4032 17.955 78.6685 18.3202 76.7209 19.3245L76.66 7.85156C74.8036 8.52107 72.7951 8.91669 70.6953 9.22101L74.0733 10.3774V33.2624C75.7166 34.5101 77.6947 34.997 79.9771 34.997V34.8753L80.0075 35.0883C84.3289 34.358 87.646 30.8887 87.5851 26.2326C87.5243 22.6111 85.7592 19.1723 82.0465 18.3202ZM80.1293 33.9928C80.0988 33.9928 80.0684 33.9928 80.038 33.9928V33.871C78.6077 33.871 77.4817 33.4146 76.8122 32.3494L76.7513 19.4158C87.8286 19.5679 85.9722 33.0189 80.1293 33.9928Z" fill="#136F76"/>
<path fill-rule="evenodd" clip-rule="evenodd" d="M104.291 19.4148L109.556 18.0454L109.495 20.6321C113.847 17.3759 118.868 16.2194 119.903 20.6321L120.329 32.2572C120.481 33.9918 125.016 33.931 125.076 32.2572L124.985 11.3807C124.59 10.0722 123.585 9.85913 122.581 9.79827C122.003 9.76784 121.425 9.34179 122.429 9.09833L127.541 8.0332L127.511 25.5317H129.063C130.646 23.9492 132.198 22.2754 133.476 20.2061C133.932 19.5061 133.384 19.2322 132.502 19.0801C132.045 18.9888 131.924 18.5627 132.441 18.5323L138.436 18.2584C138.984 18.228 139.014 18.5932 138.558 18.7149L136.002 19.3844L131.163 24.71L137.736 32.2876C138.588 33.2614 139.014 33.2919 140.262 33.6266C140.779 33.7788 140.962 34.6309 140.353 34.6613H136.489C135.058 33.7179 134.024 31.8616 133.141 30.766C131.954 29.2444 130.585 27.9054 129.276 26.4751L127.602 26.5359V32.5615C127.876 33.1701 128.546 33.5658 129.793 33.6266C130.28 33.6571 131.072 34.6309 130.22 34.6613H115.247C114.73 34.6613 114.76 34.0527 115.216 33.9918C116.799 33.8092 117.803 33.2614 117.803 31.5877L117.621 22.9145C117.59 21.8494 117.529 21.5146 116.677 20.7843C114.669 19.0801 109.465 20.1452 109.495 23.0971L109.647 31.8311C109.678 33.2919 110.013 33.7484 111.656 33.8701C112.538 33.931 112.538 34.6309 111.595 34.6613L104.657 34.6918C104.2 34.6918 104.2 34.144 104.596 34.0527C105.722 33.8701 106.969 33.5658 107.03 32.7441L106.939 21.5451C106.908 20.2669 105.722 19.9626 104.23 19.9017L104.291 19.4148Z" fill="#136F76"/>
<path d="M168.807 9.83008C168.929 11.1691 169.598 12.4168 170.603 13.6037C172.611 15.247 176.02 16.3426 178.606 18.1381C180.554 19.4771 181.771 20.7552 182.775 22.9768C184.388 26.4765 183.688 29.4588 181.832 32.1977C180.767 33.7497 179.671 34.2367 177.906 34.6018C171.059 36.093 164.181 35.9713 159.069 34.5105C157.912 34.1758 157.243 33.8715 156.391 33.0194C152.739 29.3066 153.256 23.5245 157.608 19.264C160.438 16.6469 163.999 16.0078 166.981 13.6341C167.955 12.4472 168.594 11.1995 168.807 9.83008Z" stroke="black" stroke-width="0.5" stroke-miterlimit="2.6131"/>
<defs>
<linearGradient id="paint0_linear_1227_1838" x1="144.19" y1="24.9836" x2="194.157" y2="24.9836" gradientUnits="userSpaceOnUse">
<stop stop-color="#209494"/>
<stop offset="0.3603" stop-color="#1F7288"/>
<stop offset="1" stop-color="#2B2968"/>
</linearGradient>
</defs>
</svg>
