<svg width="93" height="27" viewBox="0 0 93 27" fill="none" xmlns="http://www.w3.org/2000/svg">
<g clip-path="url(#clip0_824_9347)">
<path d="M19.7588 9.46254H10.378V12.2257H17.0258C16.6934 16.1309 13.4434 17.7888 10.378 17.7888C6.46316 17.7888 3.02845 14.6941 3.02845 10.3836C3.02845 6.18363 6.2785 2.94157 10.378 2.94157C13.5172 2.94157 15.4008 4.93102 15.4008 4.93102L17.3582 2.90473C17.3582 2.90473 14.8468 0.141602 10.3041 0.141602C4.50575 0.178443 0 5.07838 0 10.3467C0 15.5414 4.21029 20.5887 10.4519 20.5887C15.9178 20.5887 19.9435 16.8309 19.9435 11.3046C19.9435 10.1257 19.7588 9.46254 19.7588 9.46254ZM27.4407 7.47309C23.5998 7.47309 20.8298 10.4573 20.8298 13.9941C20.8298 17.5309 23.489 20.5887 27.4777 20.5887C31.0601 20.5887 34.0147 17.8256 34.0147 14.0677C34.0516 9.68359 30.6169 7.47309 27.4407 7.47309ZM27.4777 10.052C29.3612 10.052 31.1709 11.5625 31.1709 14.0309C31.1709 16.4256 29.3981 18.0098 27.4777 18.0098C25.3725 18.0098 23.7106 16.3519 23.7106 14.0309C23.7106 11.7467 25.3725 10.052 27.4777 10.052ZM41.8074 7.47309C37.9664 7.47309 35.1965 10.4573 35.1965 13.9941C35.1965 17.5309 37.8556 20.5887 41.8443 20.5887C45.4268 20.5887 48.3814 17.8256 48.3814 14.0677C48.4183 9.68359 44.9836 7.47309 41.8074 7.47309ZM41.8443 10.052C43.7279 10.052 45.5376 11.5625 45.5376 14.0309C45.5376 16.4256 43.7648 18.0098 41.8443 18.0098C39.7392 18.0098 38.0772 16.3519 38.0772 14.0309C38.1142 11.7467 39.7392 10.052 41.8443 10.052ZM55.9156 7.47309C52.3701 7.47309 49.6001 10.5678 49.6001 14.0309C49.6001 17.973 52.8132 20.5887 55.8417 20.5887C57.7252 20.5887 58.7224 19.8519 59.4611 19.0045V20.294C59.4611 22.5413 58.0946 23.9045 55.9894 23.9045C53.9951 23.9045 52.961 22.4308 52.6286 21.5834L50.1172 22.6519C51.0036 24.5308 52.8132 26.5202 56.0264 26.5202C59.5349 26.5202 62.231 24.3097 62.231 19.6677V7.87835H59.4611V8.9836C58.6116 8.06256 57.4667 7.47309 55.9156 7.47309ZM56.1741 10.052C57.9099 10.052 59.6827 11.5257 59.6827 14.0309C59.6827 16.6098 57.9099 18.0098 56.1372 18.0098C54.2536 18.0098 52.5178 16.4993 52.5178 14.0677C52.4809 11.5257 54.3275 10.052 56.1741 10.052ZM74.4556 7.43625C71.1317 7.43625 68.3248 10.0888 68.3248 13.9941C68.3248 18.1203 71.4271 20.5887 74.788 20.5887C77.5579 20.5887 79.2937 19.0782 80.2909 17.7151L78.0011 16.2046C77.4102 17.1256 76.413 18.0098 74.788 18.0098C72.9414 18.0098 72.0919 17.0151 71.5749 16.0204L80.4017 12.373L79.9585 11.3046C79.0721 9.20465 77.0778 7.43625 74.4556 7.43625ZM74.5664 9.97832C75.7852 9.97832 76.6346 10.6046 77.0039 11.3783L71.1317 13.8467C70.8732 11.9309 72.6828 9.97832 74.5664 9.97832ZM64.1515 20.1835H67.0322V0.878435H64.1515V20.1835ZM92.3309 10.4573H88.7853V6.92047H85.9046V10.4573H82.3591V13.3309H85.9046V16.8677H88.7853V13.3309H92.3309V10.4573Z" fill="#808080"/>
</g>
<defs>
<clipPath id="clip0_824_9347">
<rect width="92.3308" height="26.526" fill="white"/>
</clipPath>
</defs>
</svg>
