<svg width="140" height="36" viewBox="0 0 140 36" fill="none" xmlns="http://www.w3.org/2000/svg">
<path d="M55.0723 29.5078H52.1406L61.4061 6.16504H64.5359L73.8479 29.5078H70.7181L67.8933 22.1624H60.6736L61.4526 19.7145H66.9488L62.8728 9.13662L55.0723 29.5078Z" fill="white"/>
<path d="M120.725 29.5078H117.793L127.058 6.16504H130.187L139.499 29.5078H136.369L133.544 22.1624H126.324L127.103 19.7145H132.599L128.523 9.13662L120.723 29.5078H120.725Z" fill="white"/>
<path d="M91.3278 6.16479L81.497 17.1828L91.5415 29.5075H87.6188L78.7188 18.2763V16.4476L87.755 6.16309H91.3278V6.16479Z" fill="white"/>
<path d="M97.0643 28.8544V26.079C99.3548 26.949 101.826 27.3857 104.484 27.3857C108.239 27.3857 110.116 25.917 110.116 22.9778C110.116 20.4753 108.732 19.2233 105.964 19.2233H103.155C98.5861 19.2233 96.3008 17.1012 96.3008 12.8571C96.3008 8.39457 99.2273 6.16504 105.078 6.16504C107.622 6.16504 109.989 6.49086 112.178 7.14419V9.9196C109.989 9.04962 107.624 8.61292 105.078 8.61292C101.109 8.61292 99.1256 10.0271 99.1256 12.8571C99.1256 15.3595 100.468 16.6116 103.155 16.6116H105.964C110.614 16.6116 112.941 18.7337 112.941 22.9778C112.941 27.5478 110.121 29.8336 104.484 29.8336C101.828 29.8336 99.3548 29.5078 97.0643 28.8544Z" fill="white"/>
<path fill-rule="evenodd" clip-rule="evenodd" d="M30.5591 3.84493C27.3138 -1.36812 21.5763 -0.670429 15.8854 2.33185C9.07588 5.91583 2.32843 12.7938 0 16.8093L0.18786 18.0648C2.09231 14.4809 9.02934 7.39308 15.8836 3.68117C21.5281 0.632834 27.1122 -0.110913 29.7939 5.30002C30.2747 6.26552 30.7229 7.49885 30.7229 8.61617C30.8642 8.57011 31.0176 8.53429 31.1813 8.52235C31.2054 8.51041 31.2296 8.51041 31.252 8.51041C31.3468 8.0686 31.3933 7.63702 31.4054 7.20715V6.70734C31.3709 5.67189 31.0882 4.70638 30.5591 3.84493Z" fill="white"/>
<path fill-rule="evenodd" clip-rule="evenodd" d="M15.8858 7.11184C10.7343 9.93501 5.67238 15.0628 3.80584 18.1725C3.77827 18.2186 3.75414 18.2885 3.72656 18.3346L3.87133 19.3035C5.16395 16.8761 9.37959 12.4119 13.971 9.34137C14.719 8.84156 15.4756 8.37928 16.2305 7.96817C20.6753 5.55952 25.0788 4.95736 27.2073 9.18614C27.2539 9.27826 27.3004 9.37379 27.3452 9.47272C27.6692 10.1772 27.9467 11.0182 27.9588 11.7927C28.0553 11.7807 28.157 11.7756 28.2673 11.7841C28.2862 11.7756 28.3052 11.7739 28.3224 11.7722C28.3535 11.6886 28.381 11.605 28.4138 11.5283C28.4189 11.5146 28.4224 11.5027 28.4276 11.489C28.4655 11.2485 28.4879 11.0131 28.4965 10.776C28.4982 10.7538 28.4999 10.3973 28.4999 10.3751C28.4775 9.54437 28.2587 8.76821 27.833 8.08246C25.2098 3.84686 20.4909 4.58378 15.8823 7.10843L15.8858 7.11184Z" fill="white"/>
<path fill-rule="evenodd" clip-rule="evenodd" d="M15.8805 11.8816C12.2629 13.9934 8.78147 17.5569 7.48369 19.7335C7.4699 19.7574 7.46301 19.8257 7.44922 19.8495L7.55263 20.5336C8.49882 18.7612 11.5701 15.5048 14.924 13.2548C15.4703 12.888 16.0218 12.5503 16.5751 12.2483C19.8204 10.4794 23.0433 10.0222 24.6186 13.0654C24.6531 13.1336 24.6875 13.2019 24.722 13.2735C24.9598 13.7819 25.1718 14.3943 25.196 14.964C25.2459 14.9845 25.5182 14.8838 25.5286 14.877C25.5596 14.6962 25.5803 14.5188 25.5889 14.3431C25.5924 14.2987 25.5941 14.0872 25.5958 14.0429C25.5872 13.4168 25.4269 12.8334 25.1081 12.3183C23.0864 9.07545 19.4033 9.82773 15.8822 11.885L15.8805 11.8816Z" fill="white"/>
<path fill-rule="evenodd" clip-rule="evenodd" d="M15.8834 16.6693C13.7911 18.0544 11.897 20.0673 11.168 21.3126L11.2386 21.7783C11.8384 20.6609 13.767 18.6122 15.8834 17.181C18.2929 15.5519 20.9401 14.7485 22.1035 17.0872C22.2793 17.4471 22.4447 17.9026 22.4447 18.3086C22.4913 18.2864 22.5499 18.2745 22.6085 18.2745H22.6326C22.7619 17.6467 22.6912 17.0531 22.3861 16.5635C20.9746 14.3067 18.3066 15.0641 15.8834 16.6693Z" fill="white"/>
<path fill-rule="evenodd" clip-rule="evenodd" d="M43.0183 17.9336C41.1121 21.5176 34.1768 28.6053 27.3208 32.3173C21.6781 35.3656 16.0923 36.111 13.4122 30.6984C12.9297 29.7329 12.4833 28.4996 12.4833 27.3823C12.342 27.43 12.1903 27.4641 12.0248 27.4761C12.0007 27.488 11.9783 27.488 11.9542 27.488C11.8594 27.9298 11.8128 28.3597 11.8008 28.7913V29.2928C11.837 30.3282 12.1179 31.2955 12.647 32.1552C15.8923 37.3682 21.6298 36.6706 27.3208 33.6683C34.1285 30.0843 40.8777 23.2064 43.2061 19.1908L43.0183 17.9336Z" fill="white"/>
<path fill-rule="evenodd" clip-rule="evenodd" d="M39.3356 16.697C38.043 19.1244 33.8274 23.5886 29.236 26.6591C28.488 27.1589 27.7314 27.6212 26.9748 28.0323C22.5299 30.441 18.1264 31.0414 15.9996 26.8144C15.9531 26.7222 15.9066 26.6267 15.8618 26.5278C15.5378 25.8233 15.2603 24.9823 15.2482 24.2061C15.1534 24.2198 15.05 24.2249 14.9397 24.2147C14.9207 24.2249 14.9035 24.2249 14.8846 24.2266C14.8535 24.3102 14.826 24.3938 14.7932 24.4705C14.788 24.4842 14.7846 24.4961 14.7794 24.5098C14.7415 24.7486 14.7191 24.9857 14.7105 25.2211C14.7088 25.2433 14.707 25.5998 14.707 25.622C14.7294 26.4527 14.9483 27.2289 15.374 27.9146C17.9989 32.1485 22.7161 31.4133 27.3229 28.8887C32.4744 26.0655 37.5363 20.9377 39.4029 17.828C39.4304 17.7819 39.4546 17.712 39.4821 17.6659L39.3356 16.6953V16.697Z" fill="white"/>
<path fill-rule="evenodd" clip-rule="evenodd" d="M35.6547 15.4688C34.7085 17.2411 31.6373 20.4976 28.2834 22.7493C27.737 23.116 27.1838 23.4538 26.6323 23.7557C23.387 25.5247 20.164 25.9819 18.5888 22.9369C18.5543 22.8704 18.5198 22.8005 18.4854 22.7288C18.2458 22.2205 18.0355 21.6081 18.0131 21.0383C17.9631 21.0179 17.6891 21.1185 17.6805 21.1253C17.6495 21.3044 17.6288 21.4818 17.6202 21.6592C17.6167 21.7036 17.615 21.9151 17.6133 21.9595C17.6219 22.5855 17.7822 23.1689 18.101 23.6841C20.1244 26.9269 23.8075 26.1746 27.3268 24.1191C30.9427 22.0055 34.4259 18.4437 35.7254 16.2671C35.7392 16.2432 35.7461 16.175 35.7599 16.1528L35.6565 15.4688H35.6547Z" fill="white"/>
<path fill-rule="evenodd" clip-rule="evenodd" d="M31.9672 14.2217C31.3675 15.339 29.4406 17.386 27.3225 18.8189C24.913 20.448 22.2675 21.2515 21.1024 18.9127C20.9266 18.5511 20.7629 18.0974 20.7629 17.6897C20.7163 17.7135 20.6577 17.7238 20.5974 17.7238H20.5733C20.444 18.3515 20.5147 18.9469 20.8197 19.4347C22.2313 21.6916 24.901 20.9359 27.3225 19.3307C29.4148 17.9455 31.3089 15.9326 32.0379 14.6874L31.9655 14.2217H31.9672Z" fill="white"/>
</svg>
