<svg width="224" height="50" viewBox="0 0 224 50" fill="none" xmlns="http://www.w3.org/2000/svg">
<path d="M212.938 49.9983H182.306C176.219 49.9983 171.238 45.018 171.238 38.9305V11.224C171.238 5.1365 176.219 0.15625 182.306 0.15625H212.938C219.025 0.15625 224.006 5.1365 224.006 11.224V38.9305C224.006 45.018 219.025 49.9983 212.938 49.9983Z" fill="#F48120"/>
<path d="M40.6674 18.7348C41.0149 16.4492 41.4714 14.3848 42.04 12.5509C42.6102 10.7124 43.5437 8.77113 44.8515 6.73037C46.1626 4.67225 47.7531 3.03744 49.6344 1.82594C51.5014 0.60654 53.7553 0 56.3837 0C57.3662 0 58.5524 0.115305 59.9376 0.320644C59.8365 0.773969 59.7686 1.46896 59.7181 2.41352C59.6596 3.37072 59.6375 4.06413 59.6375 4.50008V5.89164L59.5617 8.82641L58.5966 9.14863C57.4104 8.61159 56.3 8.17406 55.2354 7.79656C54.1676 7.45064 53.1156 7.27057 52.0905 7.27057C50.9912 7.27057 50.1682 7.31164 49.5949 7.37008C49.0262 7.44274 48.5934 7.61175 48.2681 7.89765C47.9458 8.19618 47.6789 8.441 47.4499 8.66688C47.224 8.89275 47.1166 9.17707 47.1166 9.52456C47.1166 10.1453 47.3125 10.9825 47.701 12.0455C48.0896 13.1085 48.9804 15.184 50.3846 18.2831V18.7364L50.6405 22.115V30.834V40.6871L50.9675 50H47.8242H45.4849H42.4459H40.0703C40.1983 49.117 40.2867 47.9798 40.3294 46.6072C40.3673 45.2077 40.3846 43.922 40.3846 42.7342L40.6389 28.5926V22.115L40.6674 18.7348Z" fill="#F48120"/>
<path d="M83.079 17.134C83.079 17.134 56.8241 1.03543 24.627 35.4518L24.796 43.509C24.7975 43.509 49.762 4.73626 83.079 17.134Z" fill="#F48120"/>
<path d="M53.9603 38.2562C53.0078 35.7527 52.5039 33.3613 52.4802 31.0694C52.4455 28.7791 52.9336 26.5914 53.9366 24.5112C54.9648 22.4325 56.5207 20.5702 58.6246 18.9133C60.7459 17.2595 62.9462 16.0812 65.2618 15.372C67.7511 14.6028 70.3747 14.2079 73.1042 14.1795C75.8273 14.1447 78.2376 14.6328 80.3242 15.6311C82.4092 16.6325 84.2525 18.024 85.8494 19.8215C87.4415 21.6096 88.6451 23.5792 89.4776 25.7432C91.4504 30.8609 91.4251 35.5331 89.4175 39.7284C87.4084 43.9236 83.578 46.882 77.9423 48.6195C72.4945 50.2922 67.6042 50.2054 63.2637 48.3526C58.9279 46.4856 55.8352 43.1338 53.9603 38.2562ZM63.1926 29.6067L64.8243 34.6897C66.1226 38.0698 67.7417 40.9667 69.6797 43.3802C71.6241 45.7953 73.9871 46.5835 76.7829 45.7164C78.6451 45.1588 79.7919 44.1305 80.2436 42.6631C80.7096 41.2131 80.8517 39.7015 80.6843 38.133C80.5185 36.5598 80.1615 34.7686 79.6087 32.7611C79.0558 30.7614 78.5599 29.1755 78.1318 28.0335C77.9312 27.5139 77.669 26.9342 77.3531 26.285C77.0372 25.6547 76.7892 25.1746 76.617 24.8287C75.8083 22.7295 74.5178 20.9035 72.7424 19.3635C70.9781 17.8361 68.9816 17.3985 66.7623 18.073C64.5036 18.768 63.1752 20.2607 62.7819 22.5304C62.3965 24.8081 62.5324 27.1695 63.1926 29.6067Z" fill="#F48120"/>
<path d="M91.8262 15.1928L97.5978 14.7837L102.657 15.4202L102.423 20.4779C104.03 18.6188 105.821 17.1482 107.784 16.0868C109.759 15.0238 111.904 14.4678 114.238 14.4678C118.024 14.4678 120.882 15.4265 122.821 17.3236C124.774 19.2316 125.871 20.917 126.135 22.3812C126.383 23.8375 126.519 25.8878 126.519 28.543V37.025V48.5951H122.992H120.322H117.298H115.039L115.393 44.9685L115.829 36.9224V31.7178C115.829 28.1939 115.506 25.455 114.859 23.46C114.195 21.4619 112.385 20.4779 109.408 20.4779C106.271 20.4779 104.357 21.6041 103.652 23.8786C102.943 26.1405 102.594 29.1716 102.594 32.9704L103.035 48.5935H99.8486H97.4256H94.2286H91.8262C91.8262 47.9759 91.8467 47.3804 91.8878 46.766C91.9209 46.1689 91.9636 45.564 92.0078 44.948V36.2447L92.2669 28.2823V25.5324L91.8262 16.6017V15.1928Z" fill="#F48120"/>
<path d="M139.223 32.005L139.537 35.9712C139.537 36.9932 139.913 38.2189 140.696 39.6247C141.47 41.0352 142.349 42.1188 143.318 42.8627C144.266 43.613 145.313 44.1453 146.429 44.4612C147.541 44.7898 148.811 44.9493 150.207 44.9493C151.824 44.9493 153.404 44.6634 154.95 44.1106C156.517 43.5419 157.977 42.779 159.318 41.795L160.254 42.4252L158.528 46.3187C155.219 48.4069 151.51 49.4541 147.397 49.4541C144.077 49.4541 141.24 49.0813 138.913 48.3421C136.571 47.5982 134.478 46.3093 132.627 44.4896C130.786 42.6495 129.534 40.6293 128.855 38.429C128.183 36.2066 127.836 33.7978 127.836 31.1647C127.836 26.1939 129.439 22.1393 132.627 19.0197C135.843 15.8828 140.172 14.3096 145.686 14.3096C151.398 14.3096 155.489 15.8907 157.951 19.0529C160.415 22.2104 161.65 26.5272 161.65 32.0066H139.223V32.005ZM151.319 28.6801C151.275 28.4953 151.238 28.2268 151.238 27.8525V27.0848C151.238 24.8514 150.843 22.6684 150.054 20.5234C149.27 18.38 147.868 17.3123 145.825 17.3123C143.318 17.3123 141.586 18.5285 140.635 20.9436C139.693 23.3524 139.239 25.9349 139.239 28.6786H151.319V28.6801Z" fill="#F48120"/>
<path d="M24.012 43.4529C21.9428 45.5142 20.1327 46.9784 18.5863 47.8819C17.0289 48.7696 14.9755 49.215 12.393 49.215C10.2211 49.215 8.2404 48.8754 6.46501 48.2025C4.67856 47.5312 3.29964 46.5851 2.31559 45.3467C1.34418 44.1115 0.707629 42.7626 0.429632 41.3079C0.137419 39.8436 0 38.3162 0 36.7446V34.091V18.8912V15.1919L6.20913 14.7828H11.4721C11.1531 17.4791 10.9382 20.545 10.8356 23.9931C10.7345 27.4254 10.676 30.7313 10.676 33.8951C10.676 35.3989 10.7139 36.5724 10.8008 37.4001C10.8656 38.2278 11.1136 39.0176 11.5432 39.7694C12.0518 40.9588 12.7673 41.8575 13.6771 42.4878C14.5917 43.1354 15.7116 43.4513 17.0684 43.4513C20.1279 43.4513 22.0171 42.2651 22.7468 39.8942C23.4671 37.5138 23.8303 34.5206 23.8303 30.8972L23.3976 15.1903L28.9575 14.7812H34.5159C34.5159 15.6911 34.4543 17.2295 34.3421 19.4172C34.2221 21.5969 34.1605 22.761 34.1605 22.9095V34.2884V37.8487L34.5159 47.1553V48.5895H31.1309H28.7506H25.8664H23.8272L24.012 43.4529Z" fill="#9AB93C"/>
<path d="M208.446 28.4597H213.148L212.561 32.2442C212.49 32.7165 212.393 33.1193 212.273 33.4541C212.153 33.789 211.969 34.0654 211.719 34.2834C211.469 34.5014 211.131 34.6625 210.703 34.7651C210.275 34.8678 209.724 34.9183 209.046 34.9183C207.95 34.9183 207.047 34.803 206.334 34.5708C205.622 34.3387 205.057 34.007 204.638 33.5742C204.219 33.1414 203.927 32.617 203.763 31.9962C203.599 31.377 203.515 30.6836 203.515 29.9176C203.515 29.2131 203.565 28.4581 203.668 27.6509C203.771 26.8438 203.892 25.9861 204.035 25.0763C204.186 24.1317 204.344 23.2298 204.508 22.3753C204.673 21.5192 204.878 20.7279 205.123 20.0013C205.368 19.2747 205.674 18.6192 206.045 18.0348C206.415 17.4503 206.875 16.9528 207.427 16.5437C207.979 16.133 208.645 15.8171 209.426 15.5944C210.204 15.3717 211.128 15.2611 212.198 15.2611C213.578 15.2611 214.963 15.3038 216.352 15.3875C217.742 15.4728 219.099 15.6181 220.427 15.8218L221.274 10.0313C219.705 9.67431 218.789 9.56532 217.168 9.41053C215.548 9.25416 213.851 9.17676 212.079 9.17676C210.378 9.17676 208.862 9.31102 207.53 9.57796C206.199 9.8449 205.017 10.2587 203.984 10.8147C202.951 11.3723 202.049 12.0784 201.28 12.9345C200.509 13.7906 199.841 14.8062 199.275 15.9845C198.71 17.1613 198.228 18.5055 197.833 20.0171C197.437 21.5287 197.091 23.2156 196.799 25.0795C196.612 26.2736 196.467 27.3903 196.364 28.4296C196.363 28.4502 196.363 28.4676 196.361 28.4897H193.837L196.094 14.1539C196.148 13.8064 196.175 13.4857 196.175 13.1919C196.175 12.6754 196.102 12.2253 195.955 11.8414C195.808 11.4576 195.606 11.1401 195.347 10.8858C195.088 10.6315 194.782 10.4404 194.425 10.3109C194.069 10.1813 193.676 10.1166 193.25 10.1166C192.777 10.1166 192.332 10.1545 191.913 10.2303C191.495 10.3061 191.07 10.4562 190.637 10.6789C190.204 10.9016 189.752 11.2096 189.28 11.6013C188.808 11.9931 188.284 12.5064 187.704 13.1382L176.415 25.4285C175.756 26.1425 175.233 26.7617 174.845 27.2876C174.458 27.8136 174.161 28.2748 173.957 28.6713C173.752 29.0678 173.613 29.409 173.537 29.6948C173.461 29.9807 173.406 30.2382 173.37 30.4704C173.316 30.7831 173.289 31.0722 173.289 31.3391C173.289 31.7577 173.355 32.1352 173.49 32.4685C173.622 32.8034 173.84 33.0877 174.144 33.3246C174.447 33.56 174.845 33.7432 175.339 33.8727C175.834 34.0022 176.442 34.067 177.162 34.067H186.233L185.178 40.6599H191.912L192.954 34.067H196.434C196.526 34.6277 196.625 35.1774 196.777 35.6655C197.156 36.8738 197.772 37.8721 198.626 38.6618C199.481 39.45 200.598 40.0344 201.973 40.4135C203.349 40.7926 205.039 40.9822 207.044 40.9822C208.067 40.9822 209.043 40.9648 209.969 40.9285C210.894 40.8921 211.763 40.8053 212.574 40.6678C213.384 40.5304 214.128 40.3219 214.804 40.0455C215.481 39.7691 216.08 39.39 216.6 38.9098C217.121 38.4281 217.56 37.8278 217.915 37.1107C218.272 36.3936 218.53 35.5217 218.691 34.4966L220.549 22.8223H209.34L208.446 28.4597ZM187.129 28.4865H180.517L188.573 19.3537L187.129 28.4865Z" fill="white"/>
</svg>
